<svg xmlns="http://www.w3.org/2000/svg" xmlns:xlink="http://www.w3.org/1999/xlink" viewBox="0 0 64 64"><defs><style>.cls-1{fill:none;}.cls-2{isolation:isolate;}.cls-3,.cls-82,.cls-83{fill:#fff;}.cls-4,.cls-76{fill:#56382d;}.cls-5,.cls-61,.cls-7,.cls-78{opacity:0.5;}.cls-6{opacity:0.61;}.cls-6,.cls-63,.cls-7{mix-blend-mode:overlay;}.cls-8{clip-path:url(#clip-path);}.cls-9{clip-path:url(#clip-path-2);}.cls-10{clip-path:url(#clip-path-3);}.cls-11{fill:#ffc640;}.cls-12{fill:#ffc53f;}.cls-13{fill:#ffc43e;}.cls-14{fill:#ffc33d;}.cls-15{fill:#ffc23c;}.cls-16{fill:#ffc13c;}.cls-17{fill:#ffc03b;}.cls-18{fill:#ffbf3a;}.cls-19{fill:#ffbe39;}.cls-20{fill:#ffbd38;}.cls-21{fill:#ffbc37;}.cls-22{fill:#ffbb36;}.cls-23{fill:#ffba35;}.cls-24{fill:#ffb934;}.cls-25{fill:#ffb833;}.cls-26{fill:#ffb732;}.cls-27{fill:#feb632;}.cls-28{fill:#feb431;}.cls-29{fill:#feb330;}.cls-30{fill:#feb22f;}.cls-31{fill:#feb12e;}.cls-32{fill:#feb02d;}.cls-33{fill:#feaf2c;}.cls-34{fill:#feae2b;}.cls-35{fill:#fead2a;}.cls-36{fill:#feac29;}.cls-37{fill:#feab29;}.cls-38{fill:#feaa28;}.cls-39{fill:#fea927;}.cls-40{fill:#fea826;}.cls-41{fill:#fea725;}.cls-42{fill:#fea624;}.cls-43{fill:#f4ede4;}.cls-44{clip-path:url(#clip-path-4);}.cls-45{fill:#41adce;}.cls-46{clip-path:url(#clip-path-5);}.cls-47,.cls-86{opacity:0.3;}.cls-47,.cls-61,.cls-70,.cls-78,.cls-80,.cls-84,.cls-86{mix-blend-mode:multiply;}.cls-48{clip-path:url(#clip-path-6);}.cls-49{fill:#ffc23d;}.cls-50{fill:#ffb935;}.cls-51{fill:#ffb834;}.cls-52{fill:#ffb632;}.cls-53{fill:#feb531;}.cls-54{fill:#feb430;}.cls-55{fill:#feab28;}.cls-56{fill:#feaa27;}.cls-57{clip-path:url(#clip-path-7);}.cls-58{clip-path:url(#clip-path-8);}.cls-59{fill:#7f3443;}.cls-60{fill:#e58391;}.cls-62{fill:#725044;}.cls-64{clip-path:url(#clip-path-9);}.cls-65{opacity:0.72;}.cls-66{fill:#c68b7b;}.cls-67{opacity:0.39;}.cls-68{fill:#ff7d7d;}.cls-69{clip-path:url(#clip-path-10);}.cls-70{opacity:0.2;}.cls-71{clip-path:url(#clip-path-11);}.cls-72{clip-path:url(#clip-path-12);}.cls-73{clip-path:url(#clip-path-13);}.cls-74{clip-path:url(#clip-path-14);}.cls-75,.cls-76{opacity:0.56;}.cls-77{fill:#9cef3a;}.cls-78{fill:#8ec939;}.cls-79,.cls-80{fill:#e5d8ba;}.cls-81,.cls-84{fill:#badee2;opacity:0.84;}.cls-82{opacity:0.7;}.cls-83{opacity:0.75;}.cls-85{fill:url(#linear-gradient);}.cls-86{fill:url(#linear-gradient-2);}</style><clipPath id="clip-path"><path class="cls-1" d="M31.4,23.05c.17.11.25.32,0,.38a.77.77,0,0,1-.3,0,5.62,5.62,0,0,0-3.44.19A3.57,3.57,0,0,1,31.4,23.05Z"/></clipPath><clipPath id="clip-path-2"><path class="cls-1" d="M42.6,20.77c.15.07.26.25,0,.33a.46.46,0,0,1-.26,0,4.41,4.41,0,0,0-2.83.58A2.8,2.8,0,0,1,42.6,20.77Z"/></clipPath><clipPath id="clip-path-3"><path class="cls-1" d="M18.16,54.43c-.05-.19-.11-.38-.15-.58a3.76,3.76,0,0,1,.08-1.73v0h-.05a5,5,0,0,1-2.55-1.33,4.45,4.45,0,0,1-.71-.85l0,0h0a2.13,2.13,0,0,1-1.94-1.44,3.85,3.85,0,0,1-.16-.48c-.19-.62-.41-1.32-1-1.47-.81-.18-1.81.52-2.49,1.07a5.85,5.85,0,0,0-2.26,4.38,4.42,4.42,0,0,0,.57,2.38,3.3,3.3,0,0,0,.84,1,3,3,0,0,0,.95.46c-.28.07-.69.17-.78.4a.34.34,0,0,0,.05.39c.21.2.77.14,1.1.06a1,1,0,0,0-.12.16.45.45,0,0,0-.06.41c.19.51,1,.53,1.56.5a.62.62,0,0,0-.11.33.45.45,0,0,0,.37.49l.22,0,.14,0,.3.06c.31.05.61.08.9.1l.5,0A9.28,9.28,0,0,0,18,57.31l.22-.15,0,0v0c0-.2-.06-.4-.08-.59a7.18,7.18,0,0,1,.1-1.58h0C18.25,54.76,18.21,54.6,18.16,54.43Z"/></clipPath><clipPath id="clip-path-4"><path class="cls-1" d="M28.62,55a14.39,14.39,0,0,0-1.42-2.38c-.15-.21-.35-.49-.57-.76-.59-.59-1.23-1.15-1.77-1.61a5.53,5.53,0,0,0-1.07-.66l-.1,0,0,0-.35.4a6.73,6.73,0,0,1-1.21,1.17,5,5,0,0,1-3.69,1h0v0a3.41,3.41,0,0,0-.19,1.17,7.13,7.13,0,0,0,.32,1.51,6.06,6.06,0,0,1-.05,1.34A4.82,4.82,0,0,0,19.36,59a2.6,2.6,0,0,0,.78.75,2.43,2.43,0,0,0,1,.27l.46.06c.21,0,.42.11.63.17s.5.14.76.19a7.44,7.44,0,0,0,1.25.1h.36a5.44,5.44,0,0,0,2.05-.43,3.26,3.26,0,0,0,1.86-2,2.58,2.58,0,0,0-.06-1.43v0a4.6,4.6,0,0,1,.19.52c0,.12.07.24.12.36h.09a2.28,2.28,0,0,1,.12-.3,1.13,1.13,0,0,0,.11-.26,1.92,1.92,0,0,0,0-.71A6.32,6.32,0,0,0,28.62,55Z"/></clipPath><clipPath id="clip-path-5"><path class="cls-1" d="M57.05,38.48a.82.82,0,0,0-.45-.21,1.2,1.2,0,0,0-.19,0h-.15l-.08,0,0,0v0c0,.06,0,.13,0,.2a2.15,2.15,0,0,0-.15-.51,1.63,1.63,0,0,0,.92-.7,1,1,0,0,0,0-1,.83.83,0,0,0-.55-.45,1.74,1.74,0,0,0-1.32.54.11.11,0,0,0-.06.07.28.28,0,0,0,0,.09l0,.17c-.08-.13-.17-.28-.09-.39a.1.1,0,0,1,0,0,.82.82,0,0,0,.44-.44A1.06,1.06,0,0,0,55.4,35a1.08,1.08,0,0,0-.51-.57,1,1,0,0,0-.52-.13,1.58,1.58,0,0,0-.94.48l-.52.43a.37.37,0,0,0-.14.18.14.14,0,0,0,0,.09,1.15,1.15,0,0,1-.38-.38,1.57,1.57,0,0,0-.15-.19,1.05,1.05,0,0,0-.76-.36h0a.78.78,0,0,0-.71.44,2.17,2.17,0,0,0-.12.79v0a2.48,2.48,0,0,1-.75,1.66,3.38,3.38,0,0,1-1.93,1,7.43,7.43,0,0,1-1.23.12h-.17a1.67,1.67,0,0,1-.92-.12h0a4.84,4.84,0,0,1-1.13.54A26.22,26.22,0,0,0,48,35.81a35.44,35.44,0,0,0,3.12-4.09A16.78,16.78,0,0,0,53.28,27a13.47,13.47,0,0,0,.36-5.17.44.44,0,0,0,.16.06.38.38,0,0,0,.39-.1c0-.05.05-.15-.06-.29a3.43,3.43,0,0,0-.59-.65,1.6,1.6,0,0,0,.49,0,.24.24,0,0,0,.19-.11c.05-.09,0-.19-.11-.29a2.75,2.75,0,0,0-1-.47L53,19.9a6.61,6.61,0,0,1-.72-1c0-.07-.09-.15-.14-.21-1-1.49-1.92-3-2.83-4.55-.45-.76-.89-1.53-1.33-2.29l-.12-.22-.48-.83a.94.94,0,0,1-.11-.18,2.7,2.7,0,0,0-.38-.57c.19,0,.41,0,.46-.06s-.07-.19-.16-.26L47,9.6a2.47,2.47,0,0,0-.61-.4c.27,0,.5-.11.5-.29a.14.14,0,0,0,0-.1c-.12-.1-.44-.07-.84,0a2.2,2.2,0,0,1-.37,0,3.37,3.37,0,0,1-.68-.4l0,0,.32.13.12.06a.9.9,0,0,0,.57.14h0v0a.14.14,0,0,0,0-.11A10.07,10.07,0,0,0,45.52,7a10,10,0,0,0-.87-1.77,8.12,8.12,0,0,0-2.82-2.83,3.73,3.73,0,0,0-2.17-.57,4.22,4.22,0,0,0-1.9.86l-.07,0A9.27,9.27,0,0,0,36.17,4l-.05,0a3.34,3.34,0,0,0-1,1.45v0h.05l.55.07a5.06,5.06,0,0,1,.68.09,9.53,9.53,0,0,1,1.51.38,26.16,26.16,0,0,0-4.33-.32h-.25a2.39,2.39,0,0,0-.71,0c-.13,0-.15,0-.2.11l-.06.08a1,1,0,0,1-.23.23,1,1,0,0,1-.29.07h0c.21-.13.45-.29.34-.54s-.42-.26-.67-.24a1.63,1.63,0,0,1-.32,0h0a1,1,0,0,1-.22.09,2.12,2.12,0,0,0,.51-.36s.26-.27.24-.43a.24.24,0,0,0-.08-.15.47.47,0,0,0-.33,0h0a1.75,1.75,0,0,0-.91.45,3.15,3.15,0,0,1-.29.22A.79.79,0,0,1,30.1,5l0,0,0,0a.34.34,0,0,0-.33-.18c-.42.07-.8,1.06-.87,1.31a.39.39,0,0,1-.11.2l-.13,0a13.44,13.44,0,0,0-3.16,1l0,0v0a3.37,3.37,0,0,1,0,.44,1.27,1.27,0,0,0-.7-.51l-.13-.06-.29-.13-.52-.23a12.26,12.26,0,0,0-1.29-.56,14.31,14.31,0,0,0-2.38-.65,5.77,5.77,0,0,0-2.55,0,3.46,3.46,0,0,0-1.91,1.54,12.83,12.83,0,0,0-1.49,4.67,23.47,23.47,0,0,0-.31,2.73c0,.47,0,.94,0,1.41a1.94,1.94,0,0,1,0,.22,2.16,2.16,0,0,0,.1,1.07,2.13,2.13,0,0,1-.42-.1,1,1,0,0,0-.46,0v.05l0,0,.06.06a2.48,2.48,0,0,0,.35.4,1.05,1.05,0,0,0,.37.09,2.4,2.4,0,0,0-1.23.82.25.25,0,0,0,0,.17c0,.11.16.14.27.13a1.48,1.48,0,0,0,.5-.13c-.19.25-.45.64-.34.81a.09.09,0,0,0,.08.05c.12,0,.28-.14.43-.29l0,0a2.4,2.4,0,0,0,.21-.23l0,0h0a12.44,12.44,0,0,1-.34,1.4c-.12.42-.23.84-.32,1.27-.15.81-.32,1.74-.41,2.67A22.17,22.17,0,0,0,12.59,27c0,.45,0,.92.09,1.37,0,.13,0,.26,0,.38a8.8,8.8,0,0,0,.33,1.91A8.16,8.16,0,0,0,16.48,35a32.53,32.53,0,0,0,5.44,3.29,39.75,39.75,0,0,0,8.25,2.58A19.24,19.24,0,0,1,25.24,40l-.65-.2a21.29,21.29,0,0,1-2.89-1h0l0,.09a0,0,0,0,1,0,0A12,12,0,0,1,20,40.52c-.18.12-.35.26-.53.39-.42.31-.86.64-1.31.92l-.65.39a6.06,6.06,0,0,0-2.81,2.55h0l0,.1A7.19,7.19,0,0,0,14.32,46a5.35,5.35,0,0,0,.12,2.39,4.78,4.78,0,0,0,3.07,3.16,4.24,4.24,0,0,0,1.4.23A4.88,4.88,0,0,0,21.65,51a11.19,11.19,0,0,0,2.63-3l.18-.27,0,0,0,0a16,16,0,0,0,.9-1.87,3.84,3.84,0,0,1-.23,1.25l0,.06h.06a4.05,4.05,0,0,1,.75.17l.43.11c.64.14,1.16.24,1.65.31l.17,0a10.27,10.27,0,0,0,1.66.17,3.93,3.93,0,0,0,.82-.11l.11,0,.1,0h0a3,3,0,0,1,1.13-.44A14.75,14.75,0,0,1,34.31,47a24.47,24.47,0,0,1,5,.09h.09a2.27,2.27,0,0,1,1.21.37l0,0h0a5.3,5.3,0,0,1,.69,0h.42a8.83,8.83,0,0,0,1.47-.14l.14,0c.65-.12,2-.36,2.29-.86a.86.86,0,0,0,.08-.45,14.35,14.35,0,0,0-.18-2.08,5.12,5.12,0,0,1,.55,2,.05.05,0,0,0,0,0,7.73,7.73,0,0,0,1.68-.16,12.21,12.21,0,0,0,4.83-2.4,23.93,23.93,0,0,0,2-1.75L55,41.3c.21-.21.43-.44.65-.64l.09-.08a2.76,2.76,0,0,1,.27-.23h0a.82.82,0,0,1,.58-.33,1.3,1.3,0,0,0,.51-.22.75.75,0,0,0,.2-.55A1,1,0,0,0,57.05,38.48ZM34.5,27.1a3,3,0,0,1-.81,1.44,2.45,2.45,0,0,1-1.29.55c-.51.07-1,.06-1.54.08a16.37,16.37,0,0,0-2.21.12c-.62.11-1.19.39-1.81.54a2.2,2.2,0,0,1-.85.05,2.42,2.42,0,0,1-.69-.27,3.75,3.75,0,0,1-1.68-2.25,5.1,5.1,0,0,1-.09-2.87,6.23,6.23,0,0,1,2.29-3.12,6.7,6.7,0,0,1,3.65-1.19,7.09,7.09,0,0,1,1.38.06,1.87,1.87,0,0,1,1.06.45c.17.12.35.25.51.38a6.37,6.37,0,0,1,1.95,2.74A5.29,5.29,0,0,1,34.5,27.1ZM41.91,27a3.49,3.49,0,0,1-1.59-.35,2.47,2.47,0,0,1-.89-.87,7.39,7.39,0,0,1-.81-2.51,7.18,7.18,0,0,1-.15-2.57,3,3,0,0,1,1-1.9,2.4,2.4,0,0,1,.47-.37A4.34,4.34,0,0,1,42.64,18a8.1,8.1,0,0,1,2.73.79,4.33,4.33,0,0,1,2.05,2,4.55,4.55,0,0,1,.37,1.46,4.25,4.25,0,0,1,0,1.59A2.09,2.09,0,0,1,46.89,25a7.24,7.24,0,0,1-.73.38c-.28.15-.55.29-.82.46a7.51,7.51,0,0,1-1.65.83A5.35,5.35,0,0,1,41.91,27Z"/></clipPath><clipPath id="clip-path-6"><path class="cls-1" d="M43.24,31.29A2.27,2.27,0,0,0,43.5,31,3.22,3.22,0,0,0,44,30c0-.09.16-1.11.06-1.11.28,0,.58-.06.85-.05a1.41,1.41,0,0,0,.5,0,2,2,0,0,0-1.14-.63,3.26,3.26,0,0,0-1.32,0,.79.79,0,0,1,.5.39.74.74,0,0,1,0,.39,2.21,2.21,0,0,1-.34.73c-.32.52-.79,1.12-1.39,1-.3,0-.55-.27-.85-.32a1.86,1.86,0,0,0-1.11.43c-1.15.72-3.32,1.14-4.48.24a1.12,1.12,0,0,1-.38-.48.51.51,0,0,1,.14-.57c.1-.08.27-.15.26-.28a4.9,4.9,0,0,0-3.23.1,1.75,1.75,0,0,0-1.13,1c1-.17,1.86.08,1.83,1.22a7.42,7.42,0,0,0,.62,3.25,2.45,2.45,0,0,0,.52.81,1.07,1.07,0,0,0,.89.3,5.56,5.56,0,0,0,.57,2.2,2.37,2.37,0,0,0,3.75.57c.83-.84.8-2.16.93-3.33a10.28,10.28,0,0,1,1-3.51.46.46,0,0,1,.18-.23.54.54,0,0,1,.22,0A3.13,3.13,0,0,0,43.24,31.29Z"/></clipPath><clipPath id="clip-path-7"><path class="cls-1" d="M35.64,24.09a12.21,12.21,0,0,0-2-4.29,6.5,6.5,0,0,0-2.84-2.46A5.78,5.78,0,0,0,25,18.7c-2.75,2.56-4.07,7.59-1.54,10.72a10.35,10.35,0,0,1,1.15,1.42,12.08,12.08,0,0,1,2.59-1,8.49,8.49,0,0,1,3-.52,21.29,21.29,0,0,1-2.78-.17,3.41,3.41,0,0,1-2.15-2.84A4.94,4.94,0,0,1,27,21.72a4.41,4.41,0,0,1,4.88-.28,4.18,4.18,0,0,1,.83.68,5.06,5.06,0,0,1,1.38,4c-.12,1.14-.92,3.09-2.34,3a11.72,11.72,0,0,0,2.58-.1,1.25,1.25,0,0,0,1.31-1.13A9.14,9.14,0,0,0,35.64,24.09Z"/></clipPath><clipPath id="clip-path-8"><path class="cls-1" d="M48.83,20.7a9.21,9.21,0,0,0-6.29-5.48,4,4,0,0,0-2.49.09A3.4,3.4,0,0,0,38.45,17c-1.45,3-.69,10.17,3.77,10.13a2.57,2.57,0,0,0,.87-.15l-.14.1a12.87,12.87,0,0,0,3.24-1.55,5.32,5.32,0,0,1,1.59-.62c.55-.1,1-.15,1.28-.7A2.42,2.42,0,0,0,49.3,23,7,7,0,0,0,48.83,20.7Zm-3,4.43-.07.06c-1.13.79-3.22,1.52-4.53.79a4.19,4.19,0,0,1-1.52-2,6,6,0,0,1-.48-1.86A3.24,3.24,0,0,1,40,19.54a3.61,3.61,0,0,1,3.31-.62,5.31,5.31,0,0,1,3.21,1.77A3.28,3.28,0,0,1,45.87,25.13Z"/></clipPath><clipPath id="clip-path-9"><path class="cls-1" d="M40.79,27.58l.48-.2a.48.48,0,0,0,.23-.19c.11-.22-.12-.24-.25-.27a2.69,2.69,0,0,0-.8,0,4.64,4.64,0,0,0-1.48.3,2.24,2.24,0,0,0-1.21.8.15.15,0,0,0,0,.18.25.25,0,0,0,.12,0A8.94,8.94,0,0,0,40.79,27.58Z"/></clipPath><clipPath id="clip-path-10"><path class="cls-1" d="M49.36,50.52A4,4,0,0,0,47.48,49a2.74,2.74,0,0,0-1.72,0,3.73,3.73,0,0,0-.69.31,8.73,8.73,0,0,0-1.21.8.46.46,0,0,0-.18.32,1,1,0,0,1-.08.19c-.07.12-.23.18-.5.16h0c-.1,0-.34.23-.89.87l-.12.13a9.18,9.18,0,0,0-.9,1.19A8.48,8.48,0,0,0,40,55.68a1.36,1.36,0,0,1,0,.17c-.09.36-.23.91-.06,1.18l.1.14a.75.75,0,0,1,.13.18l.07.21,0-.22a2.54,2.54,0,0,1,.18-.77v0a2.57,2.57,0,0,0,.08,1.4,3.24,3.24,0,0,0,2,1.72A5,5,0,0,0,44,60l.47,0a7.27,7.27,0,0,0,1.56-.26,7.63,7.63,0,0,0,.72-.26l.6-.23.44-.11a2.18,2.18,0,0,0,1-.36,2.51,2.51,0,0,0,.69-.82,4.72,4.72,0,0,0,.6-2.76A5.9,5.9,0,0,1,50,53.75a6.84,6.84,0,0,0,0-1.5,3.42,3.42,0,0,0-.61-1.64Z"/></clipPath><clipPath id="clip-path-11"><path class="cls-1" d="M18.16,54.43c-.05-.19-.11-.38-.15-.58a3.76,3.76,0,0,1,.08-1.73v0h-.05a4.74,4.74,0,0,1-1.58-.6c-.21-.12-1.09-.53-1.15-.72a10.64,10.64,0,0,0,1.42,2.37c1,1.5-1.06,3.52-2.42,4a5.36,5.36,0,0,1-2,.28c-.16,0-1.06-.23-.45-.51a4.14,4.14,0,0,1-1.93.37c-.24,0-.56-.16-.49-.39a.37.37,0,0,1,.2-.21,5.18,5.18,0,0,1,.91-.46,5.5,5.5,0,0,1-2.1.11,3.15,3.15,0,0,1,1.36-.72,3.83,3.83,0,0,1-2.36-1.34c-.08.42.45.83.74,1a3,3,0,0,0,.95.46c-.28.07-.69.17-.78.4a.34.34,0,0,0,.05.39c.21.2.77.14,1.1.06a1,1,0,0,0-.12.16.45.45,0,0,0-.06.41c.19.51,1,.53,1.56.5a.62.62,0,0,0-.11.33.45.45,0,0,0,.37.49l.22,0,.14,0,.3.06c.31.05.61.08.9.1l.5,0A9.28,9.28,0,0,0,18,57.31l.22-.15,0,0v0c0-.2-.06-.4-.08-.59a7.18,7.18,0,0,1,.1-1.58h0C18.25,54.76,18.21,54.6,18.16,54.43Z"/></clipPath><clipPath id="clip-path-12"><path class="cls-1" d="M45.57,51.11a1,1,0,0,1-.52-1.71c-.43-.08-.87.39-1.19.64a.46.46,0,0,0-.18.32,1,1,0,0,1-.08.19c-.07.12-.23.18-.5.16h0c-.1,0-.34.23-.89.87l-.12.13a9.18,9.18,0,0,0-.9,1.19A8.48,8.48,0,0,0,40,55.68a1.36,1.36,0,0,1,0,.17c-.09.36-.23.91-.06,1.18l.1.14a.75.75,0,0,1,.13.18l.07.21,0-.22a2.54,2.54,0,0,1,.18-.77v0a2.57,2.57,0,0,0,.08,1.4,3.24,3.24,0,0,0,2,1.72A5,5,0,0,0,44,60l.47,0a7.27,7.27,0,0,0,1.56-.26,7.63,7.63,0,0,0,.72-.26l.6-.23.44-.11a2.18,2.18,0,0,0,1-.36c.46-.33,1-.89.92-1.51A1.93,1.93,0,0,1,48,58.31a1.2,1.2,0,0,1-1.13-1.44c-.67,2-2.48,2.53-4.32,1.61A2.8,2.8,0,0,1,41,56.33a3.43,3.43,0,0,1,.31-1.54A6.44,6.44,0,0,1,43.1,52.4C43.69,51.91,44.74,51,45.57,51.11Z"/></clipPath><clipPath id="clip-path-13"><path class="cls-1" d="M28.62,55a14.39,14.39,0,0,0-1.42-2.38c-.15-.21-.35-.49-.57-.76-.59-.59-1.23-1.15-1.77-1.61a5.53,5.53,0,0,0-1.07-.66l-.1,0,0,0-.35.4a6.73,6.73,0,0,1-1.21,1.17,5.5,5.5,0,0,0-1,.77,7.51,7.51,0,0,1,4,.69,5.93,5.93,0,0,1,2.76,3,2.68,2.68,0,0,1,0,2.42,2.39,2.39,0,0,1-1.68,1A4.22,4.22,0,0,1,24,58.68a2.3,2.3,0,0,1-1.65-2.12c-.49.46-.44,1.27-.86,1.79a1.43,1.43,0,0,1-1.45.44,2.14,2.14,0,0,1-1.24-.93,2.89,2.89,0,0,0,1.34,1.89,2.43,2.43,0,0,0,1,.27l.46.06c.21,0,.42.11.63.17s.5.14.76.19a7.44,7.44,0,0,0,1.25.1h.36a5.44,5.44,0,0,0,2.05-.43,3.26,3.26,0,0,0,1.86-2,2.58,2.58,0,0,0-.06-1.43v0a4.6,4.6,0,0,1,.19.52c0,.12.07.24.12.36h.09a2.28,2.28,0,0,1,.12-.3,1.13,1.13,0,0,0,.11-.26,1.92,1.92,0,0,0,0-.71A6.32,6.32,0,0,0,28.62,55Z"/></clipPath><clipPath id="clip-path-14"><path class="cls-1" d="M57,39.42a3.78,3.78,0,0,0-2,.63,1.85,1.85,0,0,1-1.14.49c-.28,0-.55-.22-.82-.15a1,1,0,0,0-.43.34,7.39,7.39,0,0,1-3.52,2.37,4.34,4.34,0,0,1-4-.85c0,1.33,0,2.87-1.1,3.66a3.3,3.3,0,0,1-1.36.54c-2.91.6-6-.38-8.88.15a3.52,3.52,0,0,1-2.13,0,2.41,2.41,0,0,1-1.22-2.15c0-.6-.1-2.3.53-2.56a2,2,0,0,1,.7-.1,46.55,46.55,0,0,0,8.81-.93c1.77-.37,4.32-.88,5.52-2.39a.47.47,0,0,1-.16-.3,18.27,18.27,0,0,0,4-4.22,28.18,28.18,0,0,0,1.65-2.67c.49-.88.81-1.86,1.31-2.73a34.08,34.08,0,0,1-6.15,7.55,15.49,15.49,0,0,1-4.73,3.33,14,14,0,0,1-6.17.68,37.81,37.81,0,0,1-16.79-5.64A14.73,14.73,0,0,1,15,31.17a18.24,18.24,0,0,1-2.43-5,16.7,16.7,0,0,0,.46,4.46A8.16,8.16,0,0,0,16.48,35a32.53,32.53,0,0,0,5.44,3.29,39.75,39.75,0,0,0,8.25,2.58A19.24,19.24,0,0,1,25.24,40l-.65-.2a21.29,21.29,0,0,1-2.89-1l0,.09a0,0,0,0,1,0,0A12,12,0,0,1,20,40.52c-.18.12-.35.26-.53.39-.42.31-.86.64-1.31.92l-.65.39a6.06,6.06,0,0,0-2.81,2.55h0l0,.1A7.19,7.19,0,0,0,14.32,46a5.35,5.35,0,0,0,.12,2.39,4.78,4.78,0,0,0,3.07,3.16,4.24,4.24,0,0,0,1.4.23A4.88,4.88,0,0,0,21.65,51a11.19,11.19,0,0,0,2.63-3l.18-.27,0,0,0,0a16,16,0,0,0,.9-1.87,3.84,3.84,0,0,1-.23,1.25l0,.06h.06a4.05,4.05,0,0,1,.75.17l.43.11c.64.14,1.16.24,1.65.31l.17,0a10.27,10.27,0,0,0,1.66.17,3.93,3.93,0,0,0,.82-.11l.11,0,.1,0h0a3,3,0,0,1,1.13-.44A14.75,14.75,0,0,1,34.31,47a24.47,24.47,0,0,1,5,.09h.09a2.27,2.27,0,0,1,1.21.37l0,0h0a5.3,5.3,0,0,1,.69,0h.42a8.83,8.83,0,0,0,1.47-.14l.14,0c.65-.12,2-.36,2.29-.86a.86.86,0,0,0,.08-.45,14.35,14.35,0,0,0-.18-2.08,5.12,5.12,0,0,1,.55,2,.05.05,0,0,0,0,0,7.73,7.73,0,0,0,1.68-.16,12.21,12.21,0,0,0,4.83-2.4,23.93,23.93,0,0,0,2-1.75L55,41.3c.21-.21.43-.44.65-.64l.09-.08a2.76,2.76,0,0,1,.27-.23h0a.82.82,0,0,1,.58-.33,1.3,1.3,0,0,0,.51-.22.34.34,0,0,0,.14-.34Z"/></clipPath><linearGradient id="linear-gradient" x1="14.1" y1="47.87" x2="24.49" y2="47.87" gradientUnits="userSpaceOnUse"><stop offset="0" stop-color="#fea624"/><stop offset="1" stop-color="#ffc640"/></linearGradient><linearGradient id="linear-gradient-2" x1="14.1" y1="47.97" x2="24.49" y2="47.97" gradientUnits="userSpaceOnUse"><stop offset="0" stop-color="#ffc640"/><stop offset="0.29" stop-color="#ffb632"/><stop offset="0.65" stop-color="#feaa28"/><stop offset="1" stop-color="#fea624"/></linearGradient></defs><g class="cls-2"><g id="Layer_1" data-name="Layer 1"><path class="cls-3" d="M47,25.2a3.83,3.83,0,0,0,1.1-4c-.7-1.79-2.89-2.82-4.59-3.41A17.52,17.52,0,0,0,37,17c-4.11.17-8.36.94-11.67,3.38a8.71,8.71,0,0,0-3.55,5.15,5.2,5.2,0,0,0,2.33,5.51c1.8,1,4,.51,6,0a13.33,13.33,0,0,0,5-1.94c1.06-.79,2-1.93,3.24-2.18,1.13-.21,2.25.31,3.39.38a6.93,6.93,0,0,0,3.48-.88A5.94,5.94,0,0,0,47,25.2Z"/><path class="cls-4" d="M33.53,25.78A3.72,3.72,0,0,1,30.21,30a3.78,3.78,0,0,1-4.09-3.54,3.72,3.72,0,0,1,3.34-4A3.78,3.78,0,0,1,33.53,25.78Z"/><path class="cls-3" d="M32.85,24.92a1.75,1.75,0,0,1-1.28.61.64.64,0,0,1-.38-.1A.53.53,0,0,1,31,25a1.11,1.11,0,0,1,.12-.5c.2-.43.61-1,1.18-.89A.85.85,0,0,1,32.85,24.92Z"/><path class="cls-3" d="M31.27,23.63a1,1,0,0,1-.31.26.32.32,0,0,1-.27,0,.25.25,0,0,1-.11-.21.45.45,0,0,1,0-.23.91.91,0,0,1,.28-.41c.16-.13.57-.17.59.11A.7.7,0,0,1,31.27,23.63Z"/><g class="cls-5"><path class="cls-3" d="M28.46,27.15c-.22.23-.78.37-1,.05a.51.51,0,0,1,.14-.63c.4-.31,1.39-.13.9.53A.1.1,0,0,1,28.46,27.15Z"/></g><g class="cls-6"><path class="cls-3" d="M32.74,26.62c.62.41.22,1.21-.23,1.78a3.37,3.37,0,0,1-2.33,1.27c-.95.09-3.73-.7-3.07-2.21a1.32,1.32,0,0,1,.75-.64,4,4,0,0,1,1-.2,9.15,9.15,0,0,1,3.53-.16A1.5,1.5,0,0,1,32.74,26.62Z"/></g><g class="cls-7"><g class="cls-8"><polygon class="cls-3" points="30.77 22.37 30.89 23.59 27.65 22.37 30.77 22.37"/><polygon class="cls-3" points="30.89 23.59 30.77 22.37 31.65 22.37 31.65 23.59 30.89 23.59"/></g></g><path class="cls-4" d="M44.85,22.91a3.1,3.1,0,0,1-2,4.1,3.47,3.47,0,0,1-4-2.61,3.07,3.07,0,0,1,2.09-3.9A3.46,3.46,0,0,1,44.85,22.91Z"/><path class="cls-3" d="M44.13,22.24a1.38,1.38,0,0,1-1,.68.57.57,0,0,1-.34,0,.54.54,0,0,1-.27-.38.86.86,0,0,1,0-.45c.09-.4.34-.94.83-.92A.81.81,0,0,1,44.13,22.24Z"/><path class="cls-3" d="M42.54,21.36a.69.69,0,0,1-.25.18.28.28,0,0,1-.33-.1.34.34,0,0,1,0-.28c.08-.2.32-.62.59-.43S42.71,21.17,42.54,21.36Z"/><g class="cls-5"><path class="cls-3" d="M40.85,24.72c-.14.23-.59.41-.83.16a.47.47,0,0,1,0-.57c.28-.32,1.14-.28.85.36Z"/></g><g class="cls-6"><path class="cls-3" d="M44.34,23.74c.59.28.39,1,.11,1.59a2.63,2.63,0,0,1-1.73,1.39c-.77.19-3.24-.17-2.94-1.56a1,1,0,0,1,.51-.66,3.47,3.47,0,0,1,.78-.29A7,7,0,0,1,44,23.65,1.48,1.48,0,0,1,44.34,23.74Z"/></g><g class="cls-7"><g class="cls-9"><polygon class="cls-3" points="41.95 20.3 42.38 21.69 39.56 20.3 41.95 20.3"/><polygon class="cls-3" points="42.38 21.69 41.95 20.3 42.86 20.3 42.86 21.69 42.38 21.69"/></g></g><g class="cls-10"><rect class="cls-11" x="6.82" y="46.29" width="0.02" height="12.41"/><rect class="cls-11" x="6.83" y="46.29" width="0.36" height="12.41"/><rect class="cls-12" x="7.19" y="46.29" width="0.36" height="12.41"/><rect class="cls-13" x="7.55" y="46.29" width="0.36" height="12.41"/><rect class="cls-14" x="7.91" y="46.29" width="0.36" height="12.41"/><rect class="cls-15" x="8.27" y="46.29" width="0.36" height="12.41"/><rect class="cls-16" x="8.62" y="46.29" width="0.36" height="12.41"/><rect class="cls-17" x="8.98" y="46.29" width="0.36" height="12.41"/><rect class="cls-18" x="9.34" y="46.29" width="0.36" height="12.41"/><rect class="cls-19" x="9.7" y="46.29" width="0.36" height="12.41"/><rect class="cls-20" x="10.06" y="46.29" width="0.36" height="12.41"/><rect class="cls-21" x="10.41" y="46.29" width="0.36" height="12.41"/><rect class="cls-22" x="10.77" y="46.29" width="0.36" height="12.41"/><rect class="cls-23" x="11.13" y="46.29" width="0.36" height="12.41"/><rect class="cls-24" x="11.49" y="46.29" width="0.36" height="12.41"/><rect class="cls-25" x="11.85" y="46.29" width="0.36" height="12.41"/><rect class="cls-26" x="12.2" y="46.29" width="0.36" height="12.41"/><rect class="cls-27" x="12.56" y="46.29" width="0.36" height="12.41"/><rect class="cls-28" x="12.92" y="46.29" width="0.36" height="12.41"/><rect class="cls-29" x="13.28" y="46.29" width="0.36" height="12.41"/><rect class="cls-30" x="13.64" y="46.29" width="0.36" height="12.41"/><rect class="cls-31" x="13.99" y="46.29" width="0.36" height="12.41"/><rect class="cls-32" x="14.35" y="46.29" width="0.36" height="12.41"/><rect class="cls-33" x="14.71" y="46.29" width="0.36" height="12.41"/><rect class="cls-34" x="15.07" y="46.29" width="0.36" height="12.41"/><rect class="cls-35" x="15.43" y="46.29" width="0.36" height="12.41"/><rect class="cls-36" x="15.79" y="46.29" width="0.36" height="12.41"/><rect class="cls-37" x="16.14" y="46.29" width="0.36" height="12.41"/><rect class="cls-38" x="16.5" y="46.29" width="0.36" height="12.41"/><rect class="cls-39" x="16.86" y="46.29" width="0.36" height="12.41"/><rect class="cls-40" x="17.22" y="46.29" width="0.36" height="12.41"/><rect class="cls-41" x="17.58" y="46.29" width="0.36" height="12.41"/><rect class="cls-42" x="17.93" y="46.29" width="0.36" height="12.41"/></g><path class="cls-43" d="M18.2,55.88a4,4,0,0,1-3.26.28c-.32-.12-.68-.39-.58-.71a.44.44,0,1,1-.57-.55,1.4,1.4,0,0,1-1.34-.15.82.82,0,0,1,.74-.43,2.73,2.73,0,0,1-1.58-2,3.26,3.26,0,0,1,0-2.2,1.38,1.38,0,0,1,1.84-.74c-.63-.75-.75-2.62-1.82-2.87-.81-.18-1.81.52-2.49,1.07a5.85,5.85,0,0,0-2.26,4.38,4.42,4.42,0,0,0,.57,2.38,3.3,3.3,0,0,0,.84,1,3,3,0,0,0,.95.46c-.28.07-.69.17-.78.4a.34.34,0,0,0,.05.39c.21.2.77.14,1.1.06a1,1,0,0,0-.12.16.45.45,0,0,0-.06.41c.19.51,1,.53,1.56.5a.62.62,0,0,0-.11.33.45.45,0,0,0,.37.49l.22,0,.14,0,.3.06c.31.05.61.08.9.1l.5,0A9.28,9.28,0,0,0,18,57.31l.22-.15,0,0v0C18.25,57,18.08,55.94,18.2,55.88Z"/><path class="cls-3" d="M39.89,55.27l0-.13a13.22,13.22,0,0,1,1.7-3.32,4.86,4.86,0,0,1,1-1.08l.1-.06-.11,0-.15,0-.16,0a7.53,7.53,0,0,0-1-.12H41v0a6.32,6.32,0,0,1-1,2.39,7.88,7.88,0,0,0,.76-3.45v-.11c0-.55,0-1.39-.52-1.7a3.43,3.43,0,0,0-1.56-.3l-.39,0a24.4,24.4,0,0,0-4.1,0h-.16c-.61,0-1.23.1-1.83.21a3.9,3.9,0,0,0-.77.21,3.86,3.86,0,0,1-1.68.5h0c-.53,0-1.06-.09-1.61-.16s-1.27-.21-1.81-.34L26,47.68a3.4,3.4,0,0,1-.92-.28l-.05,0,0,0a7.32,7.32,0,0,1-.65,1.12c-.15.21-.32.46-.5.7l0,.06h.07a2.36,2.36,0,0,1,.89.46,9.53,9.53,0,0,1,1.19,1A9.29,9.29,0,0,1,28,53.28a11.14,11.14,0,0,1,1,2.27l0,.07a5,5,0,0,1,.33,1.64v0h0a4.65,4.65,0,0,0,1.06.29l1.39.27A9.45,9.45,0,0,0,33.6,58h1.19a15.82,15.82,0,0,0,3-.32.81.81,0,0,0,.35-.12.86.86,0,0,0,.24-.3,5.3,5.3,0,0,0,.43-.82,2.8,2.8,0,0,1-.35,1v0a.45.45,0,0,0,.54.23,1.22,1.22,0,0,0,.51-.33l0,0v0A3.25,3.25,0,0,1,39.89,55.27Z"/><g class="cls-44"><polygon class="cls-42" points="29.13 55.4 25.75 49.49 29.13 49.49 29.13 55.4"/><polygon class="cls-42" points="29.13 56.09 25.36 49.49 25.75 49.49 29.13 55.4 29.13 56.09"/><polygon class="cls-41" points="29.13 56.77 24.97 49.49 25.36 49.49 29.13 56.09 29.13 56.77"/><polygon class="cls-40" points="29.13 57.46 24.57 49.49 24.97 49.49 29.13 56.77 29.13 57.46"/><polygon class="cls-39" points="29.13 58.15 24.18 49.49 24.57 49.49 29.13 57.46 29.13 58.15"/><polygon class="cls-38" points="29.13 58.84 23.79 49.49 24.18 49.49 29.13 58.15 29.13 58.84"/><polygon class="cls-37" points="29.13 59.53 23.39 49.49 23.79 49.49 29.13 58.84 29.13 59.53"/><polygon class="cls-36" points="29.13 60.22 23 49.49 23.39 49.49 29.13 59.53 29.13 60.22"/><polygon class="cls-35" points="28.92 60.54 22.61 49.49 23 49.49 29.13 60.22 29.13 60.54 28.92 60.54"/><polygon class="cls-34" points="28.52 60.54 22.21 49.49 22.61 49.49 28.92 60.54 28.52 60.54"/><polygon class="cls-33" points="28.13 60.54 21.82 49.49 22.21 49.49 28.52 60.54 28.13 60.54"/><polygon class="cls-32" points="27.74 60.54 21.42 49.49 21.82 49.49 28.13 60.54 27.74 60.54"/><polygon class="cls-31" points="27.34 60.54 21.03 49.49 21.42 49.49 27.74 60.54 27.34 60.54"/><polygon class="cls-30" points="26.95 60.54 20.64 49.49 21.03 49.49 27.34 60.54 26.95 60.54"/><polygon class="cls-29" points="26.56 60.54 20.24 49.49 20.64 49.49 26.95 60.54 26.56 60.54"/><polygon class="cls-28" points="26.16 60.54 19.85 49.49 20.24 49.49 26.56 60.54 26.16 60.54"/><polygon class="cls-27" points="25.77 60.54 19.45 49.49 19.85 49.49 26.16 60.54 25.77 60.54"/><polygon class="cls-26" points="25.38 60.54 19.06 49.49 19.45 49.49 25.77 60.54 25.38 60.54"/><polygon class="cls-25" points="24.98 60.54 18.67 49.49 19.06 49.49 25.38 60.54 24.98 60.54"/><polygon class="cls-24" points="24.59 60.54 18.27 49.49 18.67 49.49 24.98 60.54 24.59 60.54"/><polygon class="cls-23" points="24.19 60.54 18.17 50.01 18.17 49.49 18.27 49.49 24.59 60.54 24.19 60.54"/><polygon class="cls-22" points="23.8 60.54 18.17 50.69 18.17 50.01 24.19 60.54 23.8 60.54"/><polygon class="cls-21" points="23.41 60.54 18.17 51.38 18.17 50.69 23.8 60.54 23.41 60.54"/><polygon class="cls-20" points="23.01 60.54 18.17 52.07 18.17 51.38 23.41 60.54 23.01 60.54"/><polygon class="cls-19" points="22.62 60.54 18.17 52.76 18.17 52.07 23.01 60.54 22.62 60.54"/><polygon class="cls-18" points="22.23 60.54 18.17 53.45 18.17 52.76 22.62 60.54 22.23 60.54"/><polygon class="cls-17" points="21.83 60.54 18.17 54.14 18.17 53.45 22.23 60.54 21.83 60.54"/><polygon class="cls-16" points="21.44 60.54 18.17 54.83 18.17 54.14 21.83 60.54 21.44 60.54"/><polygon class="cls-15" points="21.04 60.54 18.17 55.52 18.17 54.83 21.44 60.54 21.04 60.54"/><polygon class="cls-14" points="20.65 60.54 18.17 56.2 18.17 55.52 21.04 60.54 20.65 60.54"/><polygon class="cls-13" points="20.26 60.54 18.17 56.89 18.17 56.2 20.65 60.54 20.26 60.54"/><polygon class="cls-12" points="19.86 60.54 18.17 57.58 18.17 56.89 20.26 60.54 19.86 60.54"/><polygon class="cls-11" points="19.47 60.54 18.17 58.27 18.17 57.58 19.86 60.54 19.47 60.54"/><polygon class="cls-11" points="18.17 58.27 19.47 60.54 18.17 60.54 18.17 58.27"/></g><path class="cls-43" d="M28,55.26a6.55,6.55,0,0,0-3.68-3,6.33,6.33,0,0,0-2-.46,4.13,4.13,0,0,0-3.89,4.4A4.82,4.82,0,0,0,19.36,59a2.6,2.6,0,0,0,.78.75,2.43,2.43,0,0,0,1,.27l.46.06c.21,0,.42.11.63.17s.5.14.76.19a7.44,7.44,0,0,0,1.25.1h.36a5.44,5.44,0,0,0,2.05-.43c1.95-.85,2.28-2.74,1.49-4.56Z"/><path class="cls-45" d="M40.88,47.64H40.8l.05.07a2.47,2.47,0,0,1,.28,1.39v.16s0,.11,0,.17a1.89,1.89,0,0,1,0,.69l0,.07h.08a5,5,0,0,1,1.45.16l.38.11a.76.76,0,0,0,.26.06.28.28,0,0,0,.13,0,.5.5,0,0,0,.25-.38,7.67,7.67,0,0,0,.24-1.51.72.72,0,0,0-.05-.41.75.75,0,0,0-.39-.28A5,5,0,0,0,40.88,47.64Z"/><path class="cls-3" d="M46.73,47.52v0a.92.92,0,0,0-.14-.65c-.05-.1-.18-.34-.29-.34a.11.11,0,0,0-.1.06.12.12,0,0,1-.07.07,12.62,12.62,0,0,1-2.84.94l-.23,0,.23,0c.37.08.55.23.59.45v0a1.81,1.81,0,0,1,0,.83v0a3.17,3.17,0,0,1-.1.64h0l.09,0h0c0-.13.25-.25.41-.34l.11-.06A7.16,7.16,0,0,1,47,48.36h0l-.27.17.1,0,.16.09c.18.11.26.15.31.14s.3-.58.31-.67a.46.46,0,0,0-.13-.43.81.81,0,0,0-.72-.09,4.31,4.31,0,0,0-.5.14,1.44,1.44,0,0,1,.41-.21Z"/><g class="cls-46"><polygon class="cls-30" points="38.34 26.58 41.31 27 38.34 27 38.34 26.58"/><polygon class="cls-29" points="38.34 25.16 47.88 26.53 47.88 27 41.31 27 38.34 26.58 38.34 25.16"/><polygon class="cls-28" points="38.34 23.75 47.88 25.12 47.88 26.53 38.34 25.16 38.34 23.75"/><polygon class="cls-27" points="38.34 22.34 47.88 23.7 47.88 25.12 38.34 23.75 38.34 22.34"/><polygon class="cls-26" points="38.34 20.92 47.88 22.29 47.88 23.7 38.34 22.34 38.34 20.92"/><polygon class="cls-25" points="38.34 19.51 47.88 20.88 47.88 22.29 38.34 20.92 38.34 19.51"/><polygon class="cls-24" points="38.34 18.1 47.88 19.46 47.88 20.88 38.34 19.51 38.34 18.1"/><polygon class="cls-23" points="46.48 17.85 47.88 18.05 47.88 19.46 38.34 18.1 38.34 17.85 46.48 17.85"/><polygon class="cls-22" points="47.88 18.05 46.48 17.85 47.88 17.85 47.88 18.05"/><polygon class="cls-33" points="23.26 28.65 32.12 29.93 23.26 29.93 23.26 28.65"/><polygon class="cls-32" points="23.26 27.24 34.82 28.9 34.82 29.93 32.12 29.93 23.26 28.65 23.26 27.24"/><polygon class="cls-31" points="23.26 25.83 34.82 27.49 34.82 28.9 23.26 27.24 23.26 25.83"/><polygon class="cls-30" points="23.26 24.41 34.82 26.07 34.82 27.49 23.26 25.83 23.26 24.41"/><polygon class="cls-29" points="23.26 23 34.82 24.66 34.82 26.07 23.26 24.41 23.26 23"/><polygon class="cls-28" points="23.26 21.59 34.82 23.25 34.82 24.66 23.26 23 23.26 21.59"/><polygon class="cls-27" points="23.26 20.17 34.82 21.83 34.82 23.25 23.26 21.59 23.26 20.17"/><polygon class="cls-26" points="33.03 20.16 34.82 20.42 34.82 21.83 23.26 20.17 23.26 20.16 33.03 20.16"/><polygon class="cls-25" points="34.82 20.42 33.03 20.16 34.82 20.16 34.82 20.42"/><polygon class="cls-42" points="12.51 41.25 57.3 47.67 57.3 51.82 12.51 51.82 12.51 41.25"/><polygon class="cls-42" points="12.51 39.83 57.3 46.26 57.3 47.67 12.51 41.25 12.51 39.83"/><polygon class="cls-41" points="12.51 38.42 57.3 44.84 57.3 46.26 12.51 39.83 12.51 38.42"/><polygon class="cls-40" points="12.51 37.01 57.3 43.43 57.3 44.84 12.51 38.42 12.51 37.01"/><polygon class="cls-39" points="12.51 35.59 57.3 42.02 57.3 43.43 12.51 37.01 12.51 35.59"/><polygon class="cls-38" points="12.51 34.18 57.3 40.6 57.3 42.02 12.51 35.59 12.51 34.18"/><polygon class="cls-37" points="12.51 32.77 57.3 39.19 57.3 40.6 12.51 34.18 12.51 32.77"/><polygon class="cls-36" points="12.51 31.35 57.3 37.78 57.3 39.19 12.51 32.77 12.51 31.35"/><polygon class="cls-35" points="12.51 29.94 57.3 36.36 57.3 37.78 12.51 31.35 12.51 29.94"/><polygon class="cls-34" points="12.51 28.53 57.3 34.95 57.3 36.36 12.51 29.94 12.51 28.53"/><polygon class="cls-33" points="12.51 27.11 57.3 33.54 57.3 34.95 12.51 28.53 12.51 27.11"/><polygon class="cls-32" points="12.51 25.7 57.3 32.12 57.3 33.54 12.51 27.11 12.51 25.7"/><polygon class="cls-31" points="12.51 24.29 57.3 30.71 57.3 32.12 12.51 25.7 12.51 24.29"/><polygon class="cls-30" points="12.51 22.87 57.3 29.3 57.3 30.71 12.51 24.29 12.51 22.87"/><polygon class="cls-29" points="12.51 21.46 57.3 27.88 57.3 29.3 12.51 22.87 12.51 21.46"/><polygon class="cls-28" points="12.51 20.05 57.3 26.47 57.3 27.88 12.51 21.46 12.51 20.05"/><polygon class="cls-27" points="12.51 18.63 57.3 25.06 57.3 26.47 12.51 20.05 12.51 18.63"/><polygon class="cls-26" points="12.51 17.22 57.3 23.64 57.3 25.06 12.51 18.63 12.51 17.22"/><polygon class="cls-25" points="12.51 15.8 57.3 22.23 57.3 23.64 12.51 17.22 12.51 15.8"/><polygon class="cls-24" points="12.51 14.39 57.3 20.82 57.3 22.23 12.51 15.8 12.51 14.39"/><polygon class="cls-23" points="12.51 12.98 57.3 19.4 57.3 20.82 12.51 14.39 12.51 12.98"/><polygon class="cls-22" points="12.51 11.56 57.3 17.99 57.3 19.4 12.51 12.98 12.51 11.56"/><polygon class="cls-21" points="12.51 10.15 57.3 16.57 57.3 17.99 12.51 11.56 12.51 10.15"/><polygon class="cls-20" points="12.51 8.74 57.3 15.16 57.3 16.57 12.51 10.15 12.51 8.74"/><polygon class="cls-19" points="12.51 7.32 57.3 13.75 57.3 15.16 12.51 8.74 12.51 7.32"/><polygon class="cls-18" points="12.51 5.91 57.3 12.34 57.3 13.75 12.51 7.32 12.51 5.91"/><polygon class="cls-17" points="12.51 4.5 57.3 10.92 57.3 12.34 12.51 5.91 12.51 4.5"/><polygon class="cls-16" points="12.51 3.08 57.3 9.51 57.3 10.92 12.51 4.5 12.51 3.08"/><polygon class="cls-15" points="13.14 1.76 57.3 8.1 57.3 9.51 12.51 3.08 12.51 1.76 13.14 1.76"/><polygon class="cls-14" points="22.99 1.76 57.3 6.68 57.3 8.1 13.14 1.76 22.99 1.76"/><polygon class="cls-13" points="32.85 1.76 57.3 5.27 57.3 6.68 22.99 1.76 32.85 1.76"/><polygon class="cls-12" points="42.7 1.76 57.3 3.85 57.3 5.27 32.85 1.76 42.7 1.76"/><polygon class="cls-11" points="52.56 1.76 57.3 2.44 57.3 3.85 42.7 1.76 52.56 1.76"/><polygon class="cls-11" points="57.3 2.44 52.56 1.76 57.3 1.76 57.3 2.44"/></g><path class="cls-43" d="M48,35.83l.24-.24A11.9,11.9,0,0,0,50.59,32a9.52,9.52,0,0,0,.75-4.24,3.3,3.3,0,0,0-1.71-2.67,4.2,4.2,0,0,0-3.6.43,14.41,14.41,0,0,1-3.39,1.61c-1,.21-2,.08-3,.25-1.65.28-3.08,1.33-4.73,1.58a13.69,13.69,0,0,1-2.31,0,20.14,20.14,0,0,0-3,.24,12.05,12.05,0,0,0-5.06,1.69c-1.82,1.24-3,3.41-2,5.56a7.07,7.07,0,0,0,3.09,3.19,11.18,11.18,0,0,0,2.24.68,17.07,17.07,0,0,0,2.85.54,12.94,12.94,0,0,0,1.87.08,10.32,10.32,0,0,0,1.24,0,4.06,4.06,0,0,0-2.58,2.47c-.15.34-.91,4.5-.55,4.4A19.19,19.19,0,0,1,34.31,47a24.47,24.47,0,0,1,5,.09h.09a2.27,2.27,0,0,1,1.21.37l0,0h0c.6-.06,2.11.41,2.56-.15a.48.48,0,0,0,.07-.23,11.84,11.84,0,0,0-.21-4.59c-.23-.95-.76-2-1.73-2.14C44.09,39.75,46.13,37.81,48,35.83Z"/><g class="cls-47"><g class="cls-48"><rect class="cls-11" x="30.95" y="28.09" width="0.45" height="12.22"/><rect class="cls-13" x="31.4" y="28.09" width="0.45" height="12.22"/><rect class="cls-49" x="31.85" y="28.09" width="0.45" height="12.22"/><rect class="cls-17" x="32.31" y="28.09" width="0.45" height="12.22"/><rect class="cls-19" x="32.76" y="28.09" width="0.45" height="12.22"/><rect class="cls-20" x="33.21" y="28.09" width="0.45" height="12.22"/><rect class="cls-22" x="33.66" y="28.09" width="0.45" height="12.22"/><rect class="cls-50" x="34.11" y="28.09" width="0.45" height="12.22"/><rect class="cls-51" x="34.56" y="28.09" width="0.45" height="12.22"/><rect class="cls-52" x="35.02" y="28.09" width="0.45" height="12.22"/><rect class="cls-53" x="35.47" y="28.09" width="0.45" height="12.22"/><rect class="cls-54" x="35.92" y="28.09" width="0.45" height="12.22"/><rect class="cls-30" x="36.37" y="28.09" width="0.45" height="12.22"/><rect class="cls-31" x="36.82" y="28.09" width="0.45" height="12.22"/><rect class="cls-32" x="37.28" y="28.09" width="0.45" height="12.22"/><rect class="cls-33" x="37.73" y="28.09" width="0.45" height="12.22"/><rect class="cls-34" x="38.18" y="28.09" width="0.45" height="12.22"/><rect class="cls-35" x="38.63" y="28.09" width="0.45" height="12.22"/><rect class="cls-36" x="39.08" y="28.09" width="0.45" height="12.22"/><rect class="cls-55" x="39.53" y="28.09" width="0.45" height="12.22"/><rect class="cls-38" x="39.99" y="28.09" width="0.45" height="12.22"/><rect class="cls-56" x="40.44" y="28.09" width="0.45" height="12.22"/><rect class="cls-39" x="40.89" y="28.09" width="0.45" height="12.22"/><rect class="cls-40" x="41.34" y="28.09" width="0.45" height="12.22"/><rect class="cls-40" x="41.79" y="28.09" width="0.45" height="12.22"/><rect class="cls-41" x="42.25" y="28.09" width="0.45" height="12.22"/><rect class="cls-41" x="42.7" y="28.09" width="0.45" height="12.22"/><rect class="cls-41" x="43.15" y="28.09" width="0.45" height="12.22"/><rect class="cls-42" x="43.6" y="28.09" width="0.45" height="12.22"/><rect class="cls-42" x="44.05" y="28.09" width="0.45" height="12.22"/><rect class="cls-42" x="44.5" y="28.09" width="0.45" height="12.22"/><rect class="cls-42" x="44.96" y="28.09" width="0.45" height="12.22"/></g></g><g class="cls-47"><g class="cls-57"><rect class="cls-11" x="20.92" y="16.56" width="1.18" height="14.29"/><rect class="cls-11" x="22.1" y="16.56" width="0.43" height="14.29"/><rect class="cls-13" x="22.53" y="16.56" width="0.43" height="14.29"/><rect class="cls-49" x="22.96" y="16.56" width="0.43" height="14.29"/><rect class="cls-17" x="23.39" y="16.56" width="0.43" height="14.29"/><rect class="cls-19" x="23.82" y="16.56" width="0.43" height="14.29"/><rect class="cls-20" x="24.25" y="16.56" width="0.43" height="14.29"/><rect class="cls-22" x="24.68" y="16.56" width="0.43" height="14.29"/><rect class="cls-50" x="25.11" y="16.56" width="0.43" height="14.29"/><rect class="cls-51" x="25.54" y="16.56" width="0.43" height="14.29"/><rect class="cls-52" x="25.97" y="16.56" width="0.43" height="14.29"/><rect class="cls-53" x="26.4" y="16.56" width="0.43" height="14.29"/><rect class="cls-54" x="26.83" y="16.56" width="0.43" height="14.29"/><rect class="cls-30" x="27.26" y="16.56" width="0.43" height="14.29"/><rect class="cls-31" x="27.69" y="16.56" width="0.43" height="14.29"/><rect class="cls-32" x="28.12" y="16.56" width="0.43" height="14.29"/><rect class="cls-33" x="28.55" y="16.56" width="0.43" height="14.29"/><rect class="cls-34" x="28.98" y="16.56" width="0.43" height="14.29"/><rect class="cls-35" x="29.41" y="16.56" width="0.43" height="14.29"/><rect class="cls-36" x="29.84" y="16.56" width="0.43" height="14.29"/><rect class="cls-55" x="30.26" y="16.56" width="0.43" height="14.29"/><rect class="cls-38" x="30.69" y="16.56" width="0.43" height="14.29"/><rect class="cls-56" x="31.12" y="16.56" width="0.43" height="14.29"/><rect class="cls-39" x="31.55" y="16.56" width="0.43" height="14.29"/><rect class="cls-40" x="31.98" y="16.56" width="0.43" height="14.29"/><rect class="cls-40" x="32.41" y="16.56" width="0.43" height="14.29"/><rect class="cls-41" x="32.84" y="16.56" width="0.43" height="14.29"/><rect class="cls-41" x="33.27" y="16.56" width="0.43" height="14.29"/><rect class="cls-41" x="33.7" y="16.56" width="0.43" height="14.29"/><rect class="cls-42" x="34.13" y="16.56" width="0.43" height="14.29"/><rect class="cls-42" x="34.56" y="16.56" width="0.43" height="14.29"/><rect class="cls-42" x="34.99" y="16.56" width="0.43" height="14.29"/><rect class="cls-42" x="35.42" y="16.56" width="0.43" height="14.29"/><rect class="cls-42" x="35.85" y="16.56" width="0.07" height="14.29"/></g></g><g class="cls-47"><g class="cls-58"><rect class="cls-17" x="39.19" y="18.68" width="0.03" height="8.02"/><rect class="cls-19" x="39.22" y="18.68" width="0.36" height="8.02"/><rect class="cls-20" x="39.58" y="18.68" width="0.36" height="8.02"/><rect class="cls-22" x="39.94" y="18.68" width="0.36" height="8.02"/><rect class="cls-50" x="40.3" y="18.68" width="0.36" height="8.02"/><rect class="cls-51" x="40.66" y="18.68" width="0.36" height="8.02"/><rect class="cls-52" x="41.02" y="18.68" width="0.36" height="8.02"/><rect class="cls-53" x="41.38" y="18.68" width="0.36" height="8.02"/><rect class="cls-54" x="41.74" y="18.68" width="0.36" height="8.02"/><rect class="cls-30" x="42.1" y="18.68" width="0.36" height="8.02"/><rect class="cls-31" x="42.46" y="18.68" width="0.36" height="8.02"/><rect class="cls-32" x="42.82" y="18.68" width="0.36" height="8.02"/><rect class="cls-33" x="43.18" y="18.68" width="0.36" height="8.02"/><rect class="cls-34" x="43.54" y="18.68" width="0.36" height="8.02"/><rect class="cls-35" x="43.9" y="18.68" width="0.36" height="8.02"/><rect class="cls-36" x="44.26" y="18.68" width="0.36" height="8.02"/><rect class="cls-55" x="44.62" y="18.68" width="0.36" height="8.02"/><rect class="cls-38" x="44.98" y="18.68" width="0.36" height="8.02"/><rect class="cls-56" x="45.34" y="18.68" width="0.36" height="8.02"/><rect class="cls-39" x="45.7" y="18.68" width="0.36" height="8.02"/><rect class="cls-40" x="46.06" y="18.68" width="0.36" height="8.02"/><rect class="cls-40" x="46.42" y="18.68" width="0.36" height="8.02"/><rect class="cls-41" x="46.78" y="18.68" width="0.36" height="8.02"/><rect class="cls-41" x="47.14" y="18.68" width="0.36" height="8.02"/><rect class="cls-41" x="47.5" y="18.68" width="0.09" height="8.02"/><rect class="cls-11" x="37" y="14.97" width="0.78" height="12.19"/><rect class="cls-11" x="37.78" y="14.97" width="0.36" height="12.19"/><rect class="cls-13" x="38.14" y="14.97" width="0.36" height="12.19"/><rect class="cls-49" x="38.5" y="14.97" width="0.36" height="12.19"/><rect class="cls-17" x="38.86" y="14.97" width="0.36" height="12.19"/><rect class="cls-19" x="39.22" y="14.97" width="0.36" height="12.19"/><rect class="cls-20" x="39.58" y="14.97" width="0.36" height="12.19"/><rect class="cls-22" x="39.94" y="14.97" width="0.36" height="12.19"/><rect class="cls-50" x="40.3" y="14.97" width="0.36" height="12.19"/><rect class="cls-51" x="40.66" y="14.97" width="0.36" height="12.19"/><rect class="cls-52" x="41.02" y="14.97" width="0.36" height="12.19"/><rect class="cls-53" x="41.38" y="14.97" width="0.36" height="12.19"/><rect class="cls-54" x="41.74" y="14.97" width="0.36" height="12.19"/><rect class="cls-30" x="42.1" y="14.97" width="0.36" height="12.19"/><rect class="cls-31" x="42.46" y="14.97" width="0.36" height="12.19"/><rect class="cls-32" x="42.82" y="14.97" width="0.36" height="12.19"/><rect class="cls-33" x="43.18" y="14.97" width="0.36" height="12.19"/><rect class="cls-34" x="43.54" y="14.97" width="0.36" height="12.19"/><rect class="cls-35" x="43.9" y="14.97" width="0.36" height="12.19"/><rect class="cls-36" x="44.26" y="14.97" width="0.36" height="12.19"/><rect class="cls-55" x="44.62" y="14.97" width="0.36" height="12.19"/><rect class="cls-38" x="44.98" y="14.97" width="0.36" height="12.19"/><rect class="cls-56" x="45.34" y="14.97" width="0.36" height="12.19"/><rect class="cls-39" x="45.7" y="14.97" width="0.36" height="12.19"/><rect class="cls-40" x="46.06" y="14.97" width="0.36" height="12.19"/><rect class="cls-40" x="46.42" y="14.97" width="0.36" height="12.19"/><rect class="cls-41" x="46.78" y="14.97" width="0.36" height="12.19"/><rect class="cls-41" x="47.14" y="14.97" width="0.36" height="12.19"/><rect class="cls-41" x="47.5" y="14.97" width="0.36" height="12.19"/><rect class="cls-42" x="47.86" y="14.97" width="0.36" height="12.19"/><rect class="cls-42" x="48.22" y="14.97" width="0.36" height="12.19"/><rect class="cls-42" x="48.58" y="14.97" width="0.36" height="12.19"/><rect class="cls-42" x="48.94" y="14.97" width="0.36" height="12.19"/><rect class="cls-42" x="49.3" y="14.97" width="0.01" height="12.19"/></g></g><path class="cls-59" d="M41.09,35.33a6,6,0,0,0,0-.61A6.37,6.37,0,0,1,42,31.81a1.31,1.31,0,0,0,.25-.67,5.43,5.43,0,0,0-.8,0c-.11,0-.73-.2-.76-.18a13.34,13.34,0,0,1-2.24,1.11,4.16,4.16,0,0,1-1.14.29,3.41,3.41,0,0,1-1.75-.47c-.54-.28-1-.64-1.57-.93l.43,2c.37,1.76,1,3.67,2.82,4.47a2.66,2.66,0,0,0,1.92.15,3,3,0,0,0,1.08-.7,2.88,2.88,0,0,0,.82-1.42A1.49,1.49,0,0,0,41.09,35.33Z"/><path class="cls-4" d="M40.63,35.65a3.26,3.26,0,0,0-.55-.49,2.38,2.38,0,0,1-.84-2,2.41,2.41,0,0,1,1.17-1.85,7.5,7.5,0,0,0-1.95.82,4.16,4.16,0,0,1-1.14.29,3.41,3.41,0,0,1-1.75-.47c-.54-.28-1-.64-1.57-.93l.43,2c.37,1.76,1,3.67,2.82,4.47a2.66,2.66,0,0,0,1.92.15,3,3,0,0,0,1.08-.7c.31-.32.71-.8.41-1.26Z"/><path class="cls-60" d="M41.39,37.62a2.68,2.68,0,0,0,0-1.26,3.21,3.21,0,0,0-.88-1.52,4.47,4.47,0,0,0-1-.83,4.26,4.26,0,0,0-1.11-.43,5,5,0,0,0-3.21.1.61.61,0,0,0-.37.33.53.53,0,0,0,0,.25,3,3,0,0,0,.64,1.51,2.62,2.62,0,0,1,.34.48,2.35,2.35,0,0,1,.14.69,2.89,2.89,0,0,0,1.82,2.39,4,4,0,0,0,1,.14c.24,0,.42.09.65.07a2,2,0,0,0,.73-.3,2.6,2.6,0,0,0,1-1.1A2.5,2.5,0,0,0,41.39,37.62Z"/><g class="cls-61"><path class="cls-60" d="M41.28,37.76a2.26,2.26,0,0,1-1.8,1.14,2.62,2.62,0,0,1-2-.86,3.7,3.7,0,0,1-.89-2,2.47,2.47,0,0,1,.09-1.18,1.3,1.3,0,0,1,.81-.82,2.06,2.06,0,0,1,.82,0c.6.08,1.2.19,1.8.32a3.46,3.46,0,0,0-.58-.28,4.26,4.26,0,0,0-1.11-.43,5,5,0,0,0-3.21.1.61.61,0,0,0-.37.33.53.53,0,0,0,0,.25,3,3,0,0,0,.64,1.51,2.62,2.62,0,0,1,.34.48,2.35,2.35,0,0,1,.14.69,2.89,2.89,0,0,0,1.82,2.39,4,4,0,0,0,1,.14c.24,0,.42.09.65.07a2,2,0,0,0,.73-.3A2,2,0,0,0,41.28,37.76Z"/></g><path class="cls-62" d="M41.32,29.24a2.87,2.87,0,0,0,.42-.86,1.29,1.29,0,0,0,0-1.09,1,1,0,0,0-.63-.39,2.42,2.42,0,0,0-.76,0,4.54,4.54,0,0,0-1.41.29,2.39,2.39,0,0,0-1.09.7A.79.79,0,0,0,38.13,29c.26.16.53.32.81.46a1.76,1.76,0,0,0,2.15,0A1.47,1.47,0,0,0,41.32,29.24Z"/><g class="cls-63"><g class="cls-64"><polygon class="cls-3" points="37.75 26.86 37.74 28.19 37.73 28.19 37.73 26.86 37.75 26.86"/><polygon class="cls-3" points="40.86 26.86 40.84 28.19 37.74 28.19 37.75 26.86 40.86 26.86"/><polygon class="cls-3" points="40.84 28.19 40.86 26.86 41.61 26.86 41.61 28.19 40.84 28.19"/></g></g><path class="cls-43" d="M42.44,13.82a1,1,0,0,0,.44-.43,1.58,1.58,0,0,0-.4-1.81,2.81,2.81,0,0,0-1.84-.65,2.27,2.27,0,0,0-1.26.28,1.4,1.4,0,0,0-.66,1.12C38.67,13.6,41.27,14.43,42.44,13.82Z"/><path class="cls-43" d="M28.43,15.41a1.22,1.22,0,0,0,.65-1.36c-.26-1-1.54-1.18-2.38-1a3.21,3.21,0,0,0-1.65.78,1.43,1.43,0,0,0-.28,1.7,1.41,1.41,0,0,0,1,.58A3.48,3.48,0,0,0,27,16,4.44,4.44,0,0,0,28.43,15.41Z"/><path class="cls-43" d="M57.05,38.48a.82.82,0,0,0-.45-.21,1.2,1.2,0,0,0-.19,0h-.15l-.08,0,0,0v0c0,.06,0,.13,0,.2a2.15,2.15,0,0,0-.15-.51,1.63,1.63,0,0,0,.92-.7,1,1,0,0,0,0-1,.83.83,0,0,0-.55-.45,1.74,1.74,0,0,0-1.32.54.11.11,0,0,0-.06.07.28.28,0,0,0,0,.09l0,.17c-.08-.13-.17-.28-.09-.39a.1.1,0,0,1,0,0,.82.82,0,0,0,.44-.44A1.06,1.06,0,0,0,55.4,35a1.08,1.08,0,0,0-.51-.57,1,1,0,0,0-.52-.13,1.58,1.58,0,0,0-.94.48l-.52.43a.37.37,0,0,0-.14.18.14.14,0,0,0,0,.09,1.15,1.15,0,0,1-.38-.38,1.57,1.57,0,0,0-.15-.19,1.05,1.05,0,0,0-.76-.36h0a.78.78,0,0,0-.71.44,2.17,2.17,0,0,0-.12.79v0a2.71,2.71,0,0,1-.84,1.76,2.31,2.31,0,0,0-.52,1.91,4.61,4.61,0,0,0,.64,1.77,3.92,3.92,0,0,0,1.51,1.54c1.43.73,2.24-.24,3.18-1.17L55,41.3c.21-.21.43-.44.65-.64l.09-.08a2.76,2.76,0,0,1,.27-.23h0a.82.82,0,0,1,.58-.33,1.3,1.3,0,0,0,.51-.22.75.75,0,0,0,.2-.55A1,1,0,0,0,57.05,38.48Z"/><g class="cls-65"><path class="cls-66" d="M52.13,35.87a.61.61,0,0,0,0-.3.49.49,0,0,0-.88-.15.55.55,0,0,0,.11.75A.5.5,0,0,0,52.13,35.87Z"/></g><g class="cls-65"><path class="cls-66" d="M54.79,35.54a.51.51,0,0,0,0-.3.5.5,0,0,0-.89-.14.56.56,0,0,0,.11.74A.49.49,0,0,0,54.79,35.54Z"/></g><g class="cls-65"><path class="cls-66" d="M56.48,36.94a.81.81,0,0,0,0-.31.5.5,0,0,0-.89-.14.54.54,0,0,0,.11.74A.49.49,0,0,0,56.48,36.94Z"/></g><g class="cls-65"><path class="cls-66" d="M54.88,38.94a1.42,1.42,0,0,0-.14-.64c-.33-.72-1.54-1.63-2.31-1.1a1.17,1.17,0,0,0-.34.36,1.13,1.13,0,0,0,0,.83,2.3,2.3,0,0,0,1.39,1.55,1.14,1.14,0,0,0,.79.06,1,1,0,0,0,.44-.35A1.28,1.28,0,0,0,54.88,38.94Z"/></g><g class="cls-67"><path class="cls-68" d="M47.12,26.47c.59-.25,1.2-.71.76-1.21s-1.63,0-2,.37a.66.66,0,0,0-.23.62c.09.3.46.41.77.4A2.47,2.47,0,0,0,47.12,26.47Z"/></g><g class="cls-67"><path class="cls-68" d="M28.83,30.89c.78-.16,1.63-.57,1.22-1.29s-2-.38-2.53,0a.8.8,0,0,0-.42.7c0,.38.45.6.83.67A3.3,3.3,0,0,0,28.83,30.89Z"/></g><g class="cls-69"><rect class="cls-42" x="39.69" y="48.76" width="0.09" height="11.2"/><rect class="cls-42" x="39.78" y="48.76" width="0.32" height="11.2"/><rect class="cls-41" x="40.1" y="48.76" width="0.32" height="11.2"/><rect class="cls-40" x="40.42" y="48.76" width="0.32" height="11.2"/><rect class="cls-39" x="40.75" y="48.76" width="0.32" height="11.2"/><rect class="cls-38" x="41.07" y="48.76" width="0.32" height="11.2"/><rect class="cls-37" x="41.39" y="48.76" width="0.32" height="11.2"/><rect class="cls-36" x="41.71" y="48.76" width="0.32" height="11.2"/><rect class="cls-35" x="42.03" y="48.76" width="0.32" height="11.2"/><rect class="cls-34" x="42.36" y="48.76" width="0.32" height="11.2"/><rect class="cls-33" x="42.68" y="48.76" width="0.32" height="11.2"/><rect class="cls-32" x="43" y="48.76" width="0.32" height="11.2"/><rect class="cls-31" x="43.32" y="48.76" width="0.32" height="11.2"/><rect class="cls-30" x="43.64" y="48.76" width="0.32" height="11.2"/><rect class="cls-29" x="43.97" y="48.76" width="0.32" height="11.2"/><rect class="cls-28" x="44.29" y="48.76" width="0.32" height="11.2"/><rect class="cls-27" x="44.61" y="48.76" width="0.32" height="11.2"/><rect class="cls-26" x="44.93" y="48.76" width="0.32" height="11.2"/><rect class="cls-25" x="45.25" y="48.76" width="0.32" height="11.2"/><rect class="cls-24" x="45.58" y="48.76" width="0.32" height="11.2"/><rect class="cls-23" x="45.9" y="48.76" width="0.32" height="11.2"/><rect class="cls-22" x="46.22" y="48.76" width="0.32" height="11.2"/><rect class="cls-21" x="46.54" y="48.76" width="0.32" height="11.2"/><rect class="cls-20" x="46.87" y="48.76" width="0.32" height="11.2"/><rect class="cls-19" x="47.19" y="48.76" width="0.32" height="11.2"/><rect class="cls-18" x="47.51" y="48.76" width="0.32" height="11.2"/><rect class="cls-17" x="47.83" y="48.76" width="0.32" height="11.2"/><rect class="cls-16" x="48.15" y="48.76" width="0.32" height="11.2"/><rect class="cls-15" x="48.48" y="48.76" width="0.32" height="11.2"/><rect class="cls-14" x="48.8" y="48.76" width="0.32" height="11.2"/><rect class="cls-13" x="49.12" y="48.76" width="0.32" height="11.2"/><rect class="cls-12" x="49.44" y="48.76" width="0.32" height="11.2"/><rect class="cls-11" x="49.76" y="48.76" width="0.32" height="11.2"/><rect class="cls-11" x="50.09" y="48.76" width="0.07" height="11.2"/></g><path class="cls-43" d="M48.3,52a3.86,3.86,0,0,0-1.86-.73,4.43,4.43,0,0,0-1.66.16A6,6,0,0,0,41.3,54a7.24,7.24,0,0,0-.95,3,2.76,2.76,0,0,0,0,.64,2.79,2.79,0,0,0,2.15,2.1A5,5,0,0,0,44,60l.47,0a7.27,7.27,0,0,0,1.56-.26,7.63,7.63,0,0,0,.72-.26l.6-.23.44-.11a2.18,2.18,0,0,0,1-.36,2.51,2.51,0,0,0,.69-.82,4.72,4.72,0,0,0,.6-2.76A4.55,4.55,0,0,0,48.3,52Z"/><g class="cls-65"><path class="cls-66" d="M47.51,52.59a.68.68,0,0,0-.6-.43,1.32,1.32,0,0,0-1,.22.61.61,0,0,0-.23.46.6.6,0,0,0,.35.5A1.08,1.08,0,0,0,47.44,53,.4.4,0,0,0,47.51,52.59Z"/></g><g class="cls-65"><path class="cls-66" d="M49,54.17v0a.57.57,0,0,0-.22-.35,1.16,1.16,0,0,0-.85-.24,1.35,1.35,0,0,0-.79.41.81.81,0,0,0-.23.4.69.69,0,0,0,.4.62C47.84,55.28,49.06,54.9,49,54.17Z"/></g><g class="cls-65"><path class="cls-66" d="M49.26,56a.46.46,0,0,0,0-.43.67.67,0,0,0-.57-.2c-.48,0-1.4.24-1.38.88a.65.65,0,0,0,.38.53,1.15,1.15,0,0,0,1.58-.68A.42.42,0,0,0,49.26,56Z"/></g><g class="cls-65"><path class="cls-66" d="M48.56,57.79a.91.91,0,0,0-.13-.26.8.8,0,0,0-.59-.29.72.72,0,0,0-.81.68c0,.72,1.22.89,1.5.25A.62.62,0,0,0,48.56,57.79Z"/></g><g class="cls-65"><path class="cls-66" d="M45.88,57.55a3.46,3.46,0,0,0-.31-2.12,2.14,2.14,0,0,0-1.42-1.21c-1.86-.39-3,1.94-2.23,3.41a2.32,2.32,0,0,0,1.92,1.26,2.26,2.26,0,0,0,1.52-.49A1.55,1.55,0,0,0,45.88,57.55Z"/></g><g class="cls-65"><path class="cls-66" d="M21.18,53.24a.7.7,0,0,1,.61-.42,1.34,1.34,0,0,1,1,.21.7.7,0,0,1,.24.47.64.64,0,0,1-.36.5,1.06,1.06,0,0,1-1.37-.38A.42.42,0,0,1,21.18,53.24Z"/></g><g class="cls-65"><path class="cls-66" d="M19.68,54.83v0a.52.52,0,0,1,.21-.35,1.13,1.13,0,0,1,.85-.24,1.4,1.4,0,0,1,.79.4.89.89,0,0,1,.23.41.68.68,0,0,1-.39.62C20.86,55.94,19.63,55.56,19.68,54.83Z"/></g><g class="cls-65"><path class="cls-66" d="M19.43,56.61a.5.5,0,0,1,.05-.43.72.72,0,0,1,.57-.21c.49,0,1.4.25,1.38.89a.64.64,0,0,1-.37.53,1.16,1.16,0,0,1-1.59-.68A.42.42,0,0,1,19.43,56.61Z"/></g><g class="cls-65"><path class="cls-66" d="M20.14,58.45a.68.68,0,0,1,.12-.26.87.87,0,0,1,.6-.3.71.71,0,0,1,.8.69c0,.72-1.22.89-1.5.25A.62.62,0,0,1,20.14,58.45Z"/></g><g class="cls-65"><path class="cls-66" d="M22.82,58.21a3.39,3.39,0,0,1,.31-2.12,2.18,2.18,0,0,1,1.42-1.22c1.85-.38,3,2,2.22,3.42a2.32,2.32,0,0,1-1.92,1.26,2.28,2.28,0,0,1-1.51-.49A1.44,1.44,0,0,1,22.82,58.21Z"/></g><g class="cls-70"><path class="cls-4" d="M39.89,55.27l0-.13a13.22,13.22,0,0,1,1.7-3.32,4.09,4.09,0,0,1,.8-.86c.34-.23,1-.25,1.18-.61a3.7,3.7,0,0,1,1.91-1.42,2.57,2.57,0,0,1,1.9-.13.59.59,0,0,0-.29-.86,1.68,1.68,0,0,0-1,0l-.49.1a2.59,2.59,0,0,0-.48.12,3.43,3.43,0,0,0-.65.37,2.93,2.93,0,0,1-.1-.67s0-.08,0-.1a.18.18,0,0,0-.1,0l-.93,0c.08.1.21.11.32.18a.49.49,0,0,1,.16.5,5,5,0,0,1-.48,1.15.69.69,0,0,1-.26.32.67.67,0,0,1-.37.08c-.55,0-1.13-.27-1.62,0-.24-.64.11-1.44-.31-2a8.64,8.64,0,0,1-.47,3.11,8.64,8.64,0,0,1-.84,2.29,5.17,5.17,0,0,1-2.54,2.26,3.25,3.25,0,0,1-3.25-.52,1.46,1.46,0,0,1-.39-.53,2.25,2.25,0,0,1-.08-.78,10.32,10.32,0,0,0-.33-2.71,1.51,1.51,0,0,0-.63-1l-.38,1a4.25,4.25,0,0,0-1.15-2.78,6.12,6.12,0,0,1,0,4.24,1.25,1.25,0,0,1-.75.86c-.48.11-.91-.3-1.18-.72a5,5,0,0,1-.57-4c.27-.92-1.21-.73-1.86-.89L26,47.68a3.4,3.4,0,0,1-.92-.28l-.05,0,0,0a7.32,7.32,0,0,1-.65,1.12c-.15.21-.32.46-.5.7l0,.06h.07a2.36,2.36,0,0,1,.89.46,9.53,9.53,0,0,1,1.19,1A9.29,9.29,0,0,1,28,53.28a11.14,11.14,0,0,1,1,2.27l0,.07a5,5,0,0,1,.33,1.64v0h0a4.65,4.65,0,0,0,1.06.29l1.39.27A9.45,9.45,0,0,0,33.6,58h1.19a15.82,15.82,0,0,0,3-.32.81.81,0,0,0,.35-.12.86.86,0,0,0,.24-.3,5.3,5.3,0,0,0,.43-.82,2.8,2.8,0,0,1-.35,1v0a.45.45,0,0,0,.54.23,1.22,1.22,0,0,0,.51-.33l0,0v0A3.25,3.25,0,0,1,39.89,55.27Z"/></g><g class="cls-47"><g class="cls-71"><rect class="cls-11" x="7.43" y="50.74" width="0.07" height="7.96"/><rect class="cls-11" x="7.5" y="50.74" width="0.34" height="7.96"/><rect class="cls-13" x="7.84" y="50.74" width="0.34" height="7.96"/><rect class="cls-49" x="8.18" y="50.74" width="0.34" height="7.96"/><rect class="cls-17" x="8.51" y="50.74" width="0.34" height="7.96"/><rect class="cls-19" x="8.85" y="50.74" width="0.34" height="7.96"/><rect class="cls-20" x="9.19" y="50.74" width="0.34" height="7.96"/><rect class="cls-22" x="9.53" y="50.74" width="0.34" height="7.96"/><rect class="cls-50" x="9.86" y="50.74" width="0.34" height="7.96"/><rect class="cls-51" x="10.2" y="50.74" width="0.34" height="7.96"/><rect class="cls-52" x="10.54" y="50.74" width="0.34" height="7.96"/><rect class="cls-53" x="10.87" y="50.74" width="0.34" height="7.96"/><rect class="cls-54" x="11.21" y="50.74" width="0.34" height="7.96"/><rect class="cls-30" x="11.55" y="50.74" width="0.34" height="7.96"/><rect class="cls-31" x="11.89" y="50.74" width="0.34" height="7.96"/><rect class="cls-32" x="12.22" y="50.74" width="0.34" height="7.96"/><rect class="cls-33" x="12.56" y="50.74" width="0.34" height="7.96"/><rect class="cls-34" x="12.9" y="50.74" width="0.34" height="7.96"/><rect class="cls-35" x="13.23" y="50.74" width="0.34" height="7.96"/><rect class="cls-36" x="13.57" y="50.74" width="0.34" height="7.96"/><rect class="cls-55" x="13.91" y="50.74" width="0.34" height="7.96"/><rect class="cls-38" x="14.25" y="50.74" width="0.34" height="7.96"/><rect class="cls-56" x="14.58" y="50.74" width="0.34" height="7.96"/><rect class="cls-39" x="14.92" y="50.74" width="0.34" height="7.96"/><rect class="cls-40" x="15.26" y="50.74" width="0.34" height="7.96"/><rect class="cls-40" x="15.59" y="50.74" width="0.34" height="7.96"/><rect class="cls-41" x="15.93" y="50.74" width="0.34" height="7.96"/><rect class="cls-41" x="16.27" y="50.74" width="0.34" height="7.96"/><rect class="cls-41" x="16.61" y="50.74" width="0.34" height="7.96"/><rect class="cls-42" x="16.94" y="50.74" width="0.34" height="7.96"/><rect class="cls-42" x="17.28" y="50.74" width="0.34" height="7.96"/><rect class="cls-42" x="17.62" y="50.74" width="0.34" height="7.96"/><rect class="cls-42" x="17.95" y="50.74" width="0.34" height="7.96"/></g></g><g class="cls-47"><g class="cls-72"><rect class="cls-11" x="39.69" y="49.32" width="0.09" height="10.64"/><rect class="cls-11" x="39.78" y="49.32" width="0.31" height="10.64"/><rect class="cls-13" x="40.09" y="49.32" width="0.31" height="10.64"/><rect class="cls-49" x="40.4" y="49.32" width="0.31" height="10.64"/><rect class="cls-17" x="40.71" y="49.32" width="0.31" height="10.64"/><rect class="cls-19" x="41.02" y="49.32" width="0.31" height="10.64"/><rect class="cls-20" x="41.33" y="49.32" width="0.31" height="10.64"/><rect class="cls-22" x="41.64" y="49.32" width="0.31" height="10.64"/><rect class="cls-50" x="41.95" y="49.32" width="0.31" height="10.64"/><rect class="cls-51" x="42.26" y="49.32" width="0.31" height="10.64"/><rect class="cls-52" x="42.58" y="49.32" width="0.31" height="10.64"/><rect class="cls-53" x="42.89" y="49.32" width="0.31" height="10.64"/><rect class="cls-54" x="43.2" y="49.32" width="0.31" height="10.64"/><rect class="cls-30" x="43.51" y="49.32" width="0.31" height="10.64"/><rect class="cls-31" x="43.82" y="49.32" width="0.31" height="10.64"/><rect class="cls-32" x="44.13" y="49.32" width="0.31" height="10.64"/><rect class="cls-33" x="44.44" y="49.32" width="0.31" height="10.64"/><rect class="cls-34" x="44.75" y="49.32" width="0.31" height="10.64"/><rect class="cls-35" x="45.06" y="49.32" width="0.31" height="10.64"/><rect class="cls-36" x="45.37" y="49.32" width="0.31" height="10.64"/><rect class="cls-55" x="45.68" y="49.32" width="0.31" height="10.64"/><rect class="cls-38" x="45.99" y="49.32" width="0.31" height="10.64"/><rect class="cls-56" x="46.3" y="49.32" width="0.31" height="10.64"/><rect class="cls-39" x="46.61" y="49.32" width="0.31" height="10.64"/><rect class="cls-40" x="46.93" y="49.32" width="0.31" height="10.64"/><rect class="cls-40" x="47.24" y="49.32" width="0.31" height="10.64"/><rect class="cls-41" x="47.55" y="49.32" width="0.31" height="10.64"/><rect class="cls-41" x="47.86" y="49.32" width="0.31" height="10.64"/><rect class="cls-41" x="48.17" y="49.32" width="0.31" height="10.64"/><rect class="cls-42" x="48.48" y="49.32" width="0.31" height="10.64"/><rect class="cls-42" x="48.79" y="49.32" width="0.31" height="10.64"/><rect class="cls-42" x="49.1" y="49.32" width="0.31" height="10.64"/><rect class="cls-42" x="49.41" y="49.32" width="0.31" height="10.64"/><rect class="cls-42" x="49.72" y="49.32" width="0.11" height="10.64"/></g></g><g class="cls-47"><g class="cls-73"><polygon class="cls-11" points="29.13 55.4 25.75 49.49 29.13 49.49 29.13 55.4"/><polygon class="cls-11" points="29.13 56.09 25.36 49.49 25.75 49.49 29.13 55.4 29.13 56.09"/><polygon class="cls-13" points="29.13 56.78 24.96 49.49 25.36 49.49 29.13 56.09 29.13 56.78"/><polygon class="cls-49" points="29.13 57.47 24.57 49.49 24.96 49.49 29.13 56.78 29.13 57.47"/><polygon class="cls-17" points="29.13 58.16 24.17 49.49 24.57 49.49 29.13 57.47 29.13 58.16"/><polygon class="cls-19" points="29.13 58.85 23.78 49.49 24.17 49.49 29.13 58.16 29.13 58.85"/><polygon class="cls-20" points="29.13 59.55 23.38 49.49 23.78 49.49 29.13 58.85 29.13 59.55"/><polygon class="cls-22" points="29.13 60.24 22.99 49.49 23.38 49.49 29.13 59.55 29.13 60.24"/><polygon class="cls-50" points="28.91 60.54 22.59 49.49 22.99 49.49 29.13 60.24 29.13 60.54 28.91 60.54"/><polygon class="cls-51" points="28.51 60.54 22.2 49.49 22.59 49.49 28.91 60.54 28.51 60.54"/><polygon class="cls-52" points="28.12 60.54 21.8 49.49 22.2 49.49 28.51 60.54 28.12 60.54"/><polygon class="cls-53" points="27.72 60.54 21.41 49.49 21.8 49.49 28.12 60.54 27.72 60.54"/><polygon class="cls-54" points="27.33 60.54 21.01 49.49 21.41 49.49 27.72 60.54 27.33 60.54"/><polygon class="cls-30" points="26.93 60.54 20.62 49.49 21.01 49.49 27.33 60.54 26.93 60.54"/><polygon class="cls-31" points="26.54 60.54 20.22 49.49 20.62 49.49 26.93 60.54 26.54 60.54"/><polygon class="cls-32" points="26.14 60.54 19.83 49.49 20.22 49.49 26.54 60.54 26.14 60.54"/><polygon class="cls-33" points="25.75 60.54 19.43 49.49 19.83 49.49 26.14 60.54 25.75 60.54"/><polygon class="cls-34" points="25.35 60.54 19.04 49.49 19.43 49.49 25.75 60.54 25.35 60.54"/><polygon class="cls-35" points="24.95 60.54 18.8 49.77 18.8 49.49 19.04 49.49 25.35 60.54 24.95 60.54"/><polygon class="cls-36" points="24.56 60.54 18.8 50.46 18.8 49.77 24.95 60.54 24.56 60.54"/><polygon class="cls-55" points="24.16 60.54 18.8 51.15 18.8 50.46 24.56 60.54 24.16 60.54"/><polygon class="cls-38" points="23.77 60.54 18.8 51.84 18.8 51.15 24.16 60.54 23.77 60.54"/><polygon class="cls-56" points="23.37 60.54 18.8 52.53 18.8 51.84 23.77 60.54 23.37 60.54"/><polygon class="cls-39" points="22.98 60.54 18.8 53.22 18.8 52.53 23.37 60.54 22.98 60.54"/><polygon class="cls-40" points="22.58 60.54 18.8 53.91 18.8 53.22 22.98 60.54 22.58 60.54"/><polygon class="cls-40" points="22.19 60.54 18.8 54.61 18.8 53.91 22.58 60.54 22.19 60.54"/><polygon class="cls-41" points="21.79 60.54 18.8 55.3 18.8 54.61 22.19 60.54 21.79 60.54"/><polygon class="cls-41" points="21.4 60.54 18.8 55.99 18.8 55.3 21.79 60.54 21.4 60.54"/><polygon class="cls-41" points="21 60.54 18.8 56.68 18.8 55.99 21.4 60.54 21 60.54"/><polygon class="cls-42" points="20.61 60.54 18.8 57.37 18.8 56.68 21 60.54 20.61 60.54"/><polygon class="cls-42" points="20.21 60.54 18.8 58.06 18.8 57.37 20.61 60.54 20.21 60.54"/><polygon class="cls-42" points="19.82 60.54 18.8 58.76 18.8 58.06 20.21 60.54 19.82 60.54"/><polygon class="cls-42" points="19.42 60.54 18.8 59.45 18.8 58.76 19.82 60.54 19.42 60.54"/><polygon class="cls-42" points="18.8 59.45 19.42 60.54 18.8 60.54 18.8 59.45"/></g></g><g class="cls-47"><g class="cls-74"><polygon class="cls-11" points="12.59 45.81 54.45 51.82 12.59 51.82 12.59 45.81"/><polygon class="cls-11" points="12.59 45.07 57.26 51.47 57.26 51.82 54.45 51.82 12.59 45.81 12.59 45.07"/><polygon class="cls-13" points="12.59 44.32 57.26 50.72 57.26 51.47 12.59 45.07 12.59 44.32"/><polygon class="cls-49" points="12.59 43.57 57.26 49.97 57.26 50.72 12.59 44.32 12.59 43.57"/><polygon class="cls-17" points="12.59 42.82 57.26 49.23 57.26 49.97 12.59 43.57 12.59 42.82"/><polygon class="cls-19" points="12.59 42.07 57.26 48.48 57.26 49.23 12.59 42.82 12.59 42.07"/><polygon class="cls-20" points="12.59 41.32 57.26 47.73 57.26 48.48 12.59 42.07 12.59 41.32"/><polygon class="cls-22" points="12.59 40.57 57.26 46.98 57.26 47.73 12.59 41.32 12.59 40.57"/><polygon class="cls-50" points="12.59 39.82 57.26 46.23 57.26 46.98 12.59 40.57 12.59 39.82"/><polygon class="cls-51" points="12.59 39.07 57.26 45.48 57.26 46.23 12.59 39.82 12.59 39.07"/><polygon class="cls-52" points="12.59 38.32 57.26 44.73 57.26 45.48 12.59 39.07 12.59 38.32"/><polygon class="cls-53" points="12.59 37.57 57.26 43.98 57.26 44.73 12.59 38.32 12.59 37.57"/><polygon class="cls-54" points="12.59 36.82 57.26 43.23 57.26 43.98 12.59 37.57 12.59 36.82"/><polygon class="cls-30" points="12.59 36.07 57.26 42.48 57.26 43.23 12.59 36.82 12.59 36.07"/><polygon class="cls-31" points="12.59 35.32 57.26 41.73 57.26 42.48 12.59 36.07 12.59 35.32"/><polygon class="cls-32" points="12.59 34.58 57.26 40.98 57.26 41.73 12.59 35.32 12.59 34.58"/><polygon class="cls-33" points="12.59 33.83 57.26 40.23 57.26 40.98 12.59 34.58 12.59 33.83"/><polygon class="cls-34" points="12.59 33.08 57.26 39.48 57.26 40.23 12.59 33.83 12.59 33.08"/><polygon class="cls-35" points="12.59 32.33 57.26 38.73 57.26 39.48 12.59 33.08 12.59 32.33"/><polygon class="cls-36" points="12.59 31.58 57.26 37.98 57.26 38.73 12.59 32.33 12.59 31.58"/><polygon class="cls-55" points="12.59 30.83 57.26 37.23 57.26 37.98 12.59 31.58 12.59 30.83"/><polygon class="cls-38" points="12.59 30.08 57.26 36.49 57.26 37.23 12.59 30.83 12.59 30.08"/><polygon class="cls-56" points="12.59 29.33 57.26 35.74 57.26 36.49 12.59 30.08 12.59 29.33"/><polygon class="cls-39" points="12.59 28.58 57.26 34.99 57.26 35.74 12.59 29.33 12.59 28.58"/><polygon class="cls-40" points="12.59 27.83 57.26 34.24 57.26 34.99 12.59 28.58 12.59 27.83"/><polygon class="cls-40" points="12.59 27.08 57.26 33.49 57.26 34.24 12.59 27.83 12.59 27.08"/><polygon class="cls-41" points="12.59 26.33 57.26 32.74 57.26 33.49 12.59 27.08 12.59 26.33"/><polygon class="cls-41" points="17.03 26.22 57.26 31.99 57.26 32.74 12.59 26.33 12.59 26.22 17.03 26.22"/><polygon class="cls-41" points="22.25 26.22 57.26 31.24 57.26 31.99 17.03 26.22 22.25 26.22"/><polygon class="cls-42" points="27.48 26.22 57.26 30.49 57.26 31.24 22.25 26.22 27.48 26.22"/><polygon class="cls-42" points="32.7 26.22 57.26 29.74 57.26 30.49 27.48 26.22 32.7 26.22"/><polygon class="cls-42" points="37.93 26.22 57.26 28.99 57.26 29.74 32.7 26.22 37.93 26.22"/><polygon class="cls-42" points="43.15 26.22 57.26 28.24 57.26 28.99 37.93 26.22 43.15 26.22"/><polygon class="cls-42" points="57.26 28.24 43.15 26.22 57.26 26.22 57.26 28.24"/></g></g><path class="cls-3" d="M38.73,28.1c-.12,0-.25,0-.37,0a.82.82,0,0,0-.34.09.06.06,0,0,0,0,.1c.22.2.59.05.75-.17A0,0,0,0,0,38.73,28.1Z"/><path class="cls-3" d="M39.34,28c-.13,0-.36,0-.43.12a.08.08,0,0,0,0,.05c.14.1.31-.06.43-.13A0,0,0,0,0,39.34,28Z"/><path class="cls-3" d="M41.2,27.29a1.11,1.11,0,0,0-.47.17,3.39,3.39,0,0,0-.53.29h0a1.17,1.17,0,0,0,.61-.09c.15-.07.35-.14.42-.31A0,0,0,0,0,41.2,27.29Z"/><path class="cls-3" d="M52.89,22.31a1.31,1.31,0,0,0-.59-1s0,0,0,0a2.25,2.25,0,0,0,.14,1,7.27,7.27,0,0,1,.2,1.4c0,.11.18.15.21,0A3,3,0,0,0,52.89,22.31Z"/><g class="cls-75"><path class="cls-3" d="M40.46,36.14a.18.18,0,0,0,.16,0c.28-.12,0-.6-.12-.74a.55.55,0,0,0-.27-.23.2.2,0,0,0-.2,0,.22.22,0,0,0-.05.16,1,1,0,0,0,.15.4A1,1,0,0,0,40.46,36.14Z"/></g><g class="cls-75"><path class="cls-3" d="M40.77,36.78a.15.15,0,0,0,.1-.06c.23-.3-.26-.5-.27-.21a.47.47,0,0,0,0,.17.14.14,0,0,0,0,.08A.08.08,0,0,0,40.77,36.78Z"/></g><path class="cls-3" d="M52.69,24.57a.09.09,0,0,0-.13,0,.71.71,0,0,0-.06.25v.1c0,.05,0,.09,0,.13a.06.06,0,0,0,.09.07.28.28,0,0,0,.09-.1.49.49,0,0,0,.1-.15A.31.31,0,0,0,52.69,24.57Z"/><path class="cls-3" d="M24.89,31.81a3.22,3.22,0,0,0-.54.1,1.83,1.83,0,0,0-.49.28c-.21.17-.49.38-.52.67,0,0,0,0,.05,0a1.6,1.6,0,0,0,.82-.34,5.78,5.78,0,0,0,.76-.63C25,31.88,25,31.8,24.89,31.81Z"/><path class="cls-3" d="M26.7,31.16a3.08,3.08,0,0,0-1.12.2.17.17,0,0,0,0,.32,1,1,0,0,0,1.22-.35A.11.11,0,0,0,26.7,31.16Z"/><path class="cls-3" d="M10.09,31.81a1,1,0,0,0-.82-.19.76.76,0,0,0-.65.45.12.12,0,0,0,.05.13.87.87,0,0,0,.53,0,1.23,1.23,0,0,1,.63.06C10.07,32.33,10.31,32,10.09,31.81Z"/><path class="cls-3" d="M10.54,32.26l-.12-.07a.19.19,0,0,0-.24.19.28.28,0,0,0,0,.15.24.24,0,0,0,.17.12.19.19,0,0,0,.24-.18A.23.23,0,0,0,10.54,32.26Z"/><path class="cls-3" d="M14.32,34.16a1.08,1.08,0,0,0-1.06-.38,1,1,0,0,0-.87.55s0,0,0,0c.3.12.53,0,.83-.06a5.27,5.27,0,0,1,.57,0,4.29,4.29,0,0,1,.5-.07S14.34,34.18,14.32,34.16Z"/><path class="cls-3" d="M18.44,37.55c-.12-.32-.58-.18-.8-.1a1.26,1.26,0,0,0-.75.6.18.18,0,0,0,.17.22,3.81,3.81,0,0,0,1-.29C18.26,37.92,18.53,37.78,18.44,37.55Z"/><path class="cls-3" d="M26.9,45.68a9.29,9.29,0,0,0-1.63-2.31q-1-1.12-2-2.19c-.67-.69-1.35-1.36-2.05-2-.37-.34-.75-.68-1.14-1A2.79,2.79,0,0,0,19,37.46a.15.15,0,0,0-.17.22,3.35,3.35,0,0,0,.91.93l1.07,1c.71.64,1.4,1.31,2.06,2s1.27,1.36,1.88,2.06a15.1,15.1,0,0,0,2,2.18C26.84,45.86,26.94,45.78,26.9,45.68Z"/><path class="cls-3" d="M24.9,44.37a34.15,34.15,0,0,0-3.07-3.29,19.14,19.14,0,0,0-3.38-2.71h0c1,1.09,2.16,2,3.22,3s2.15,2,3.21,3C24.89,44.4,24.91,44.38,24.9,44.37Z"/><path class="cls-3" d="M16.54,34.91a2.36,2.36,0,0,0-1.18.41,7.76,7.76,0,0,0-1.15.74A5.43,5.43,0,0,0,12.51,38h0c.32-.27.57-.63.87-.93a8.41,8.41,0,0,1,1.1-.87,8.27,8.27,0,0,1,1-.62A4.07,4.07,0,0,0,16.58,35S16.59,34.92,16.54,34.91Z"/><path class="cls-3" d="M16.82,35.11a.06.06,0,0,0-.05.09,1.37,1.37,0,0,0,.47.39s.07,0,.06,0A.5.5,0,0,0,16.82,35.11Z"/><path class="cls-4" d="M32.57,50.93a9.41,9.41,0,0,1,0,2.65c-.15.83-.45,1.63-.57,2.47,0,.05.07.1.1,0a8.82,8.82,0,0,0,.73-2.56,4.61,4.61,0,0,0-.26-2.6Z"/><path class="cls-4" d="M57.06,38.24a1.26,1.26,0,0,0-.79-.1V38a3.8,3.8,0,0,0,.49-.31,2.06,2.06,0,0,0,.33-.5A1.2,1.2,0,0,0,57,36a1,1,0,0,0-1.14-.37c-.27.07-.23.07-.21-.2a1,1,0,0,0-.17-.7A1.33,1.33,0,0,0,54,34.17a2.24,2.24,0,0,0-.75.39c-.05,0-.6.42-.58.48a1.44,1.44,0,0,0-1.35-.69c-.86.13-.9.88-1,1.58a2.3,2.3,0,0,1-1.28,1.84,4.61,4.61,0,0,1-1.53.4c-.32,0-.62,0-.94,0-.14,0-.29,0-.43,0A12.87,12.87,0,0,0,47.5,37a31.15,31.15,0,0,0,2.7-3.15,19.15,19.15,0,0,0,3.72-7.48,13.12,13.12,0,0,0,.28-2.34A5.26,5.26,0,0,0,54,22.24a.39.39,0,0,0,.38-.16.53.53,0,0,0,0-.59c-.06-.1-.24-.39-.38-.38a.45.45,0,0,0,.35-.22.29.29,0,0,0,.05-.13.42.42,0,0,0,0-.29.84.84,0,0,0-.36-.31c-.07,0-.78-.34-.79-.36a.09.09,0,0,0,0-.06c-.51-.85-1.1-1.65-1.63-2.49l-1.48-2.36c-1-1.55-1.93-3.11-2.91-4.65l.09,0c.26.07.09-.52,0-.6s-.42-.43-.54-.39A.42.42,0,0,0,47,9.16c.11-.12.18-.28.05-.42a.63.63,0,0,0-.27-.14.67.67,0,0,0-.44,0,5.62,5.62,0,0,0-.49-1.89,8.16,8.16,0,0,0-.95-1.86,8.45,8.45,0,0,0-3.3-2.92,3.86,3.86,0,0,0-2.06-.38,4.58,4.58,0,0,0-1.94.86,6.8,6.8,0,0,0-2.85,3l-.81,0a4.59,4.59,0,0,0-1.6.18.76.76,0,0,0-.78-.27c.2-.15.46-.37.32-.63a.74.74,0,0,0-.59-.27,1.63,1.63,0,0,0-1.05.4.33.33,0,0,0-.35-.23c-.34,0-.5.32-.67.57a10,10,0,0,1-.55.86,19.22,19.22,0,0,0-3.24.9.54.54,0,0,1-.22,0A.62.62,0,0,1,25,6.85c-.54-.26-1.07-.52-1.61-.76a13.09,13.09,0,0,0-2.08-.71,6.52,6.52,0,0,0-4,0A4.83,4.83,0,0,0,14.92,8a15.9,15.9,0,0,0-1.2,4.11,19.16,19.16,0,0,0-.21,2.5q0,.7,0,1.41c0,.31,0,.62.07.93A1.11,1.11,0,0,0,13,17a.23.23,0,0,0-.12.06c-.19.16.27.86.46.78a2.15,2.15,0,0,0-.84.68.72.72,0,0,0-.12.23.44.44,0,0,0,.06.32s.28.18.31.1a.7.7,0,0,0,0,.77c.19.19.4.07.58-.15a15.14,15.14,0,0,0-.56,1.85,17.13,17.13,0,0,0-.46,2.67A21,21,0,0,0,12.21,27,12.72,12.72,0,0,0,13,31.64c.78,1.9,2.36,3,3.92,4.22a26.2,26.2,0,0,0,4.32,2.68l-.3.39c-.28.32-.57.63-.88.93a13.85,13.85,0,0,1-2,1.56c-1.35.88-2.86,1.69-3.61,3.2h0a5.05,5.05,0,0,0-.49,2.76,5.29,5.29,0,0,0,.63,2.17c-.39.08-.82-.34-1-.6a6,6,0,0,1-.91-1.74C12.06,46,10.93,46,9.9,46.62a6.09,6.09,0,0,0-3.17,6.85,3.67,3.67,0,0,0,1.76,2.29.52.52,0,0,0-.33.5c0,.52.55.5,1,.51a.71.71,0,0,0,.08.76,1.33,1.33,0,0,0,1.37.34.37.37,0,0,0-.06.21c0,.28.21.43.44.54a5.72,5.72,0,0,0,2.45.5,9.81,9.81,0,0,0,2.7-.35,18,18,0,0,0,2.25-1A4.28,4.28,0,0,0,19,59a3.27,3.27,0,0,0,2.27,1.4,21.11,21.11,0,0,0,3.2.47,6.37,6.37,0,0,0,1.89-.2A3.92,3.92,0,0,0,28.55,59a1.94,1.94,0,0,0,.31-.89.69.69,0,0,0,.41-.38l.06-.15a4.09,4.09,0,0,0,1.69.53,21.65,21.65,0,0,0,2.41.26A16.21,16.21,0,0,0,38.14,58a.69.69,0,0,1,.25,0,.82.82,0,0,1,.26.06,1,1,0,0,0,1-.42c0,.09.36.42.44.43a1.75,1.75,0,0,0,.38.83,3.87,3.87,0,0,0,2.35,1.36,6.44,6.44,0,0,0,1.86,0,21,21,0,0,0,3.07-.79,3.2,3.2,0,0,0,2.07-1.59,5.15,5.15,0,0,0,.53-2.5,6.71,6.71,0,0,0-.26-1.54c0-.35.13-.69.16-1.07a3.64,3.64,0,0,0-.35-1.92,4.2,4.2,0,0,0-2.24-2h0a1,1,0,0,0,.17-1,.88.88,0,0,0-.37-.44s-.45-.16-.45-.11a2.49,2.49,0,0,0-.14-.71.41.41,0,0,0,0-.09,7.08,7.08,0,0,0,.89-.17,12.55,12.55,0,0,0,4.6-2.2,18.56,18.56,0,0,0,2.12-1.83l1.06-1.08a4.9,4.9,0,0,0,.75-.76,2.2,2.2,0,0,0,.66-.29c.33-.21.56-.36.59-.76A1.44,1.44,0,0,0,57.06,38.24ZM18,57.27a9.08,9.08,0,0,1-5.23,1.37c-.3,0-.6-.06-.9-.11l-.43-.08-.22,0c-.43,0-.42-.82-.06-.84-.45,0-1.51.1-1.72-.46a.41.41,0,0,1,.05-.37,1.14,1.14,0,0,1,.26-.28c-.28.11-1.54.35-1.28-.34.09-.25.69-.34.92-.41a3,3,0,0,1-1.11-.5,3.25,3.25,0,0,1-.83-.94,4.42,4.42,0,0,1-.57-2.36,5.85,5.85,0,0,1,2.25-4.34c.6-.48,1.63-1.25,2.45-1.06s.91,1.3,1.16,1.92a2.21,2.21,0,0,0,2,1.46,4.58,4.58,0,0,0,.71.87A5.19,5.19,0,0,0,18,52.11,3.7,3.7,0,0,0,18,53.86c.07.39.2.72.27,1.07a7.31,7.31,0,0,0-.09,1.59c0,.19,0,.4.07.6ZM29.05,57c0,.1-.26.5-.24.57a4.67,4.67,0,0,0-.46-1.17,3.42,3.42,0,0,1,.14,1.73,3.26,3.26,0,0,1-1.84,1.94,5.91,5.91,0,0,1-2,.43,7.73,7.73,0,0,1-1.59-.1c-.48-.08-.93-.26-1.4-.35a4.18,4.18,0,0,1-1.45-.33,2.74,2.74,0,0,1-.78-.74,4.77,4.77,0,0,1-.81-3.64,4.63,4.63,0,0,1,1.79-2.84,4.26,4.26,0,0,1,3.39-.39A6.94,6.94,0,0,1,26,53a0,0,0,1,0,0,0,4.54,4.54,0,0,0-1.19-.91,5.35,5.35,0,0,0-1.46-.44,5.23,5.23,0,0,0-2.48.25,3.9,3.9,0,0,0-2.43,2.56,1.93,1.93,0,0,1-.26-1.11,3.7,3.7,0,0,1,.19-1.15,5.13,5.13,0,0,0,3.73-1A6.83,6.83,0,0,0,23.36,50c.12-.13.23-.26.34-.4a5.52,5.52,0,0,1,1.13.69c.6.51,1.2,1,1.76,1.6.2.25.38.5.57.76A13.52,13.52,0,0,1,28.58,55,6.85,6.85,0,0,1,29,56.29,2.06,2.06,0,0,1,29.05,57Zm10.45.33a1.08,1.08,0,0,1-.48.31.41.41,0,0,1-.49-.2,2.86,2.86,0,0,0,.39-1.51,3.55,3.55,0,0,1-.55,1.3.89.89,0,0,1-.23.28,1,1,0,0,1-.33.12,18.1,18.1,0,0,1-3,.32,14.62,14.62,0,0,1-3-.12l-1.39-.26a4.66,4.66,0,0,1-1.05-.29A5.22,5.22,0,0,0,29,55.54,12.15,12.15,0,0,0,28,53.25a9.46,9.46,0,0,0-2-2.48,10.59,10.59,0,0,0-1.19-1,2.42,2.42,0,0,0-.91-.48c.17-.23.34-.46.5-.7a7.62,7.62,0,0,0,.66-1.12,4.73,4.73,0,0,0,1.22.35c.6.14,1.21.25,1.82.33a14.4,14.4,0,0,0,1.61.17c.35,0,.82-.23,1,.13A6,6,0,0,1,31,49.88a15.43,15.43,0,0,1,.16,3,8,8,0,0,0-.35-4.76c.22,0,.45-.22.66-.3a4.71,4.71,0,0,1,.76-.2,18.73,18.73,0,0,1,2-.22,24.29,24.29,0,0,1,4.09,0,4.71,4.71,0,0,1,1.94.31c.53.32.5,1.23.5,1.77a7.91,7.91,0,0,1-.92,3.75s0,0,0,0a6.4,6.4,0,0,0,1.21-2.7,1.27,1.27,0,0,0,.28,0,8.49,8.49,0,0,1,1,.11l.31.07a4.56,4.56,0,0,0-1,1.1,13.42,13.42,0,0,0-1.72,3.32A3.69,3.69,0,0,0,39.5,57.32Zm1.68-8a2.84,2.84,0,0,0-.29-1.58,4.85,4.85,0,0,1,2.5.28.65.65,0,0,1,.37.26.69.69,0,0,1,.05.38,9.38,9.38,0,0,1-.24,1.5.5.5,0,0,1-.22.35.53.53,0,0,1-.37,0c-.12,0-.25-.08-.38-.12a5.54,5.54,0,0,0-1.46-.16A2.58,2.58,0,0,0,41.18,49.27Zm8.2,1.37a3.27,3.27,0,0,1,.6,1.61,1.94,1.94,0,0,1-.13,1.12,3.84,3.84,0,0,0-2.63-2.25,5.08,5.08,0,0,0-2.45,0,5.3,5.3,0,0,0-1.37.57,4.67,4.67,0,0,0-1.07,1s0,0,0,0a7,7,0,0,1,2.11-1.1,4.24,4.24,0,0,1,3.35,0,4.6,4.6,0,0,1,2,2.58,4.7,4.7,0,0,1-.42,3.63,2.4,2.4,0,0,1-.68.8,4.18,4.18,0,0,1-1.38.47c-.45.14-.87.36-1.33.49a7.29,7.29,0,0,1-1.54.26,5.56,5.56,0,0,1-2-.21,3.22,3.22,0,0,1-2-1.69,3.37,3.37,0,0,1,0-1.7,2.68,2.68,0,0,0-.31,1c0-.12-.16-.21-.23-.32-.19-.3,0-1,.11-1.31a8.34,8.34,0,0,1,1.22-2.78,8.46,8.46,0,0,1,.9-1.17c.13-.15.83-1,1-1s.45,0,.54-.19.06-.35.25-.49a8.64,8.64,0,0,1,1.2-.8,3.71,3.71,0,0,1,.68-.3,2.68,2.68,0,0,1,1.7,0A4.13,4.13,0,0,1,49.38,50.64Zm-1.77-2.53c0,.12-.14.59-.28.62s-.35-.19-.45-.22l.27-.17a.14.14,0,0,0-.14,0,7.38,7.38,0,0,0-2.58.92c-.16.09-.49.24-.55.43A3.53,3.53,0,0,0,44,49a2,2,0,0,0-.06-.9c0-.3-.32-.43-.62-.5a12.51,12.51,0,0,0,2.85-.93.22.22,0,0,0,.09-.1c.09-.16.3.25.31.28a.89.89,0,0,1,.13.62,1.42,1.42,0,0,0-.61.39,3.4,3.4,0,0,1,.72-.23C47.23,47.55,47.65,47.59,47.61,48.11Zm9.45-8.37c-.31.27-.87.17-1.1.56h0c-.12.09-.24.2-.36.31-.35.32-.67.68-1,1a25.28,25.28,0,0,1-2,1.74,12.16,12.16,0,0,1-4.81,2.39,6.57,6.57,0,0,1-1.65.16,5.2,5.2,0,0,0-.68-2.3A14.41,14.41,0,0,1,45.67,46a.81.81,0,0,1-.07.41c-.29.53-1.86.77-2.4.86a7.94,7.94,0,0,1-1.46.14c-.37,0-.75,0-1.11,0a2.53,2.53,0,0,0-1.32-.4,26.11,26.11,0,0,0-5-.09,15.3,15.3,0,0,0-2.24.32,3.06,3.06,0,0,0-1.15.46l-.22,0a3.1,3.1,0,0,1-.81.11,11.13,11.13,0,0,1-1.82-.19c-.55-.08-1.1-.19-1.65-.3a9,9,0,0,0-1.19-.29,3.66,3.66,0,0,0,.23-1.26c0-.06-.07-.06-.09,0a13.64,13.64,0,0,1-.89,1.85,0,0,0,0,0,0,0,12.34,12.34,0,0,1-2.82,3.24,4.62,4.62,0,0,1-4.09.64,4.71,4.71,0,0,1-3-3.13,5.14,5.14,0,0,1-.13-2.37,8.05,8.05,0,0,1,.36-1.21h0c.68-1.5,2.11-2.14,3.46-3,.64-.4,1.24-.87,1.85-1.32.16-.11,1.83-1.69,1.65-1.77A30.33,30.33,0,0,0,25.22,40a19.13,19.13,0,0,0,5.12.86s.05-.05,0-.06a39.25,39.25,0,0,1-8.41-2.62,32.35,32.35,0,0,1-5.44-3.28,8.08,8.08,0,0,1-3.41-4.26,11,11,0,0,1-.36-2.27c-.05-.46-.08-.91-.09-1.37a20.22,20.22,0,0,1,.08-2.58,26.71,26.71,0,0,1,.41-2.66c.17-.9.5-1.77.65-2.67,0,0,0,0,0-.06l.09-.2s0,0,0,0a2.61,2.61,0,0,1-.37.44c-.08.08-.38.41-.46.27s.37-.8.48-.93a1.53,1.53,0,0,1-.69.23c-.08,0-.19,0-.22-.09a.19.19,0,0,1,0-.14A2.84,2.84,0,0,1,14,17.72a1.18,1.18,0,0,1-.59-.08,4.49,4.49,0,0,1-.4-.45.79.79,0,0,1,.43,0c.21.06.39.09.6.13-.34-.11-.2-1.09-.2-1.37q0-.7,0-1.41a24.9,24.9,0,0,1,.32-2.72,12.66,12.66,0,0,1,1.48-4.66,3.45,3.45,0,0,1,1.88-1.52,5.73,5.73,0,0,1,2.54,0,13.72,13.72,0,0,1,2.36.64c.44.17.87.35,1.29.56.27.14.54.24.81.36s.81.3.86.74a3.5,3.5,0,0,0,.07-.65,14,14,0,0,1,3.15-1,.33.33,0,0,0,.14,0,.36.36,0,0,0,.13-.24c.11-.36.68-1.72,1.12-1.11a.7.7,0,0,0-.09.37h0c.43-.27.71-.65,1.25-.72.14,0,.37-.06.39.15s-.16.31-.22.38a2.83,2.83,0,0,1-.71.47s0,0,0,0a1.66,1.66,0,0,0,.45-.14c.3.06.78-.14.95.22s-.38.47-.58.65c.11-.1.47-.07.62-.16A.82.82,0,0,0,32.4,6c.11-.13.05-.13.23-.18a3.77,3.77,0,0,1,.95,0,25.45,25.45,0,0,1,4.77.39,8.61,8.61,0,0,0-1.94-.55c-.4-.08-.82-.09-1.24-.15A3.43,3.43,0,0,1,36.2,4a10,10,0,0,1,1.52-1.23,4.31,4.31,0,0,1,2-.9,3.7,3.7,0,0,1,2.14.56,8.1,8.1,0,0,1,2.8,2.81A10.38,10.38,0,0,1,45.48,7a11.81,11.81,0,0,1,.41,1.58s0,.06,0,.08h0c-.21.06-.48-.11-.66-.19s-.5-.18-.74-.3h0a8.28,8.28,0,0,0,1.1.67c.14.06,1.23-.22,1.23.05s-.64.26-.79.27c.4,0,.8.38,1.11.6s-.25.27-.49.19c.26.09.51.65.66.87s.4.69.6,1c.44.77.88,1.53,1.33,2.29.92,1.54,1.86,3,2.83,4.55a8.17,8.17,0,0,0,.87,1.22c-.08,0-.19,0-.26,0a3.73,3.73,0,0,1,1.4.57c.07.06.14.15.1.23a.23.23,0,0,1-.16.08,1.48,1.48,0,0,1-.78-.1,2.56,2.56,0,0,1,.85.82c.32.41-.48.41-.52.13A13.32,13.32,0,0,1,53.23,27a16.76,16.76,0,0,1-2.16,4.71A35.11,35.11,0,0,1,48,35.77a25.94,25.94,0,0,1-3.6,3.35s0,.05,0,0a5.16,5.16,0,0,0,1.24-.57,2.19,2.19,0,0,0,1.11.13A8.54,8.54,0,0,0,48,38.6a3.47,3.47,0,0,0,2-1.05,2.52,2.52,0,0,0,.76-1.69A2.26,2.26,0,0,1,50.8,35a.75.75,0,0,1,.67-.41,1,1,0,0,1,.73.34c.19.2.38.61.7.62a.12.12,0,0,1-.08-.16.29.29,0,0,1,.12-.15l.52-.44a1.61,1.61,0,0,1,.91-.47,1,1,0,0,1,.5.14,1.07,1.07,0,0,1,.49.54,1,1,0,0,1-.49,1.18.22.22,0,0,0-.07.06c-.13.19.11.44.2.61l0-.37a.16.16,0,0,1,0-.07s0,0,0-.05c.52-.42,1.36-.91,1.8-.1a1,1,0,0,1,0,.95,1.63,1.63,0,0,1-1,.69,1.65,1.65,0,0,1,.18.61c0,.06,0,.14.07.17a1.29,1.29,0,0,1,.06-.42l.09,0c.11,0,.22,0,.33,0a.77.77,0,0,1,.43.19A1,1,0,0,1,57.06,39.74Z"/><path class="cls-4" d="M34.4,29l-.75-.06a4.57,4.57,0,0,0,1.11-2.13,5.49,5.49,0,0,0-.06-2.45,7.39,7.39,0,0,0-.32-1,8.44,8.44,0,0,0-1.77-2.6,4.59,4.59,0,0,0-5-.8,8.22,8.22,0,0,0-3.4,2.37,6,6,0,0,0-1,3.82A4.65,4.65,0,0,0,25,29.68a3,3,0,0,0,.66.41l.08,0a2.92,2.92,0,0,0-.76.52s0,0,0,0A10.06,10.06,0,0,0,26,30.22c.37-.13.73-.26,1.11-.37a17.5,17.5,0,0,1,2.16-.41c1.69-.24,3.4-.25,5.1-.43C34.42,29,34.42,29,34.4,29Zm-1.65-.1c-.39,0-.79,0-1.18,0a20.65,20.65,0,0,0-2.37.19,12.68,12.68,0,0,0-2.28.57l-.69.25a2.41,2.41,0,0,1-.68-.34,5.14,5.14,0,0,1-.54-.37,4.11,4.11,0,0,1-1-5.36,5.88,5.88,0,0,1,1.38-1.75,5.15,5.15,0,0,1,.91-.64,7.18,7.18,0,0,1,3.9-.93,4.23,4.23,0,0,1,3.31,2,5.83,5.83,0,0,1,.95,4.2A3.75,3.75,0,0,1,34,27.89C33.74,28.3,33.27,28.85,32.75,28.89Z"/><path class="cls-4" d="M48.42,24.69a6.77,6.77,0,0,0-.9,0c.37-.28.37-1.07.39-1.49a5.14,5.14,0,0,0-.56-2.91A5.72,5.72,0,0,0,40.29,18a3.17,3.17,0,0,0-2,2.7,9.38,9.38,0,0,0,.81,4.74A3,3,0,0,0,40,26.59a2.21,2.21,0,0,0,.5.21,5,5,0,0,0-.77.15,3.77,3.77,0,0,1,1.34,0,1,1,0,0,1,.3.13c.7.46.29,1.45-.09,2a2.61,2.61,0,0,1-.61.63c-.51.33-1.07,0-1.56-.21a5.47,5.47,0,0,1-.82-.45,1.11,1.11,0,0,1-.54-.53c-.08-.24,0-.73.3-.83-.65.23-.62.87-.19,1.29a4.55,4.55,0,0,0,1.3.75c.66.29,1.29.51,1.87-.05A3.14,3.14,0,0,0,42,28a1.06,1.06,0,0,0,0-.4.87.87,0,0,0-.15-.34,3.92,3.92,0,0,0,1.82-.32,16.44,16.44,0,0,0,1.73-1,11.71,11.71,0,0,1,3.24-1.2Zm-1.61.23c-.36.16-.7.36-1,.53-.51.29-1,.68-1.51.92a5.22,5.22,0,0,1-2.81.57,1.2,1.2,0,0,0-.33-.13h0l-.3-.11a2.32,2.32,0,0,1-1.2-.86,5.64,5.64,0,0,1-1-2.5c-.15-1.07-.41-2.74.36-3.62a4.56,4.56,0,0,1,3-1.45c2.47-.22,5.51,1.42,5.62,4.12a4.2,4.2,0,0,1-.23,1.52A5,5,0,0,1,46.81,24.92Z"/><path class="cls-4" d="M45,28.5a1.73,1.73,0,0,0-1.51-.24.13.13,0,0,0,0,.25c.45.16-.32,1.44-.47,1.64a4,4,0,0,1-.56.66,1.1,1.1,0,0,1-1.06.22c-.34-.05-.64-.21-1,0-.5.25-1,.56-1.49.78a7.32,7.32,0,0,1-1.52.5,2.62,2.62,0,0,1-1.83-.49,10.46,10.46,0,0,1-1.3-1,7.28,7.28,0,0,0-.63-.61,8,8,0,0,0,.84-.11,0,0,0,0,0,0-.05,1.9,1.9,0,0,0-2.56.39h0c.41,0,.8-.15,1.21-.2.15.17.31.35.48.51A9.53,9.53,0,0,1,34.17,32c.15.6.19,1.23.31,1.83a7.23,7.23,0,0,0,.5,1.51,2.38,2.38,0,0,0,.62.94,2,2,0,0,0,0,.34,3.31,3.31,0,0,0,.78,1.77,3.15,3.15,0,0,0,3.48,1.1,2.79,2.79,0,0,0,1.8-2.85,2.94,2.94,0,0,0-.42-1.3,6.12,6.12,0,0,0,0-.86,5.65,5.65,0,0,1,.2-1.22,10.58,10.58,0,0,1,.91-2.1,2.61,2.61,0,0,0,.49-.35c.45-.42,1.37-1.62,1-2.3.38,0,.75,0,1.12,0C45,28.54,45,28.51,45,28.5Zm-4.11,9.83a2.52,2.52,0,0,1-4.15-.09A4.64,4.64,0,0,1,36,36a2.26,2.26,0,0,0-.62-1.62,0,0,0,0,0-.07.06,2.57,2.57,0,0,1,.24,1.18c-.12-.2-.26-.4-.35-.59A6.12,6.12,0,0,1,34.87,34a10.87,10.87,0,0,1,1.1-.36,4,4,0,0,1,1.24-.06,6.48,6.48,0,0,1,2.47.77A2.74,2.74,0,0,1,40.88,38.33Zm.27-5.14a5.14,5.14,0,0,0-.21,1.74,4.69,4.69,0,0,0-1.59-1.13,6.42,6.42,0,0,0-2.47-.61,3.3,3.3,0,0,0-2.07.52c0-.18-.07-.37-.1-.56a7.56,7.56,0,0,0-.39-1.81,1.56,1.56,0,0,0,.2.16,5.35,5.35,0,0,0,1.6.76,3.2,3.2,0,0,0,1.67.2,8.41,8.41,0,0,0,1.9-.67c.29-.14.56-.37.86-.48s.69.06,1,.07a2,2,0,0,0,.49-.06A4.62,4.62,0,0,0,41.15,33.19Z"/><path class="cls-76" d="M20.7,7.35a3.3,3.3,0,0,0-2.65.05,3.63,3.63,0,0,0-1.16,2.34,4.42,4.42,0,0,0,.42,2.75s0,0,0,0a7.19,7.19,0,0,1-.23-2.26,5,5,0,0,1,.72-2.17c.55-.86,1.59-.68,2.46-.47a3.83,3.83,0,0,1,2.11,1.1s0,0,0,0C22.39,7.82,21.39,7.55,20.7,7.35Z"/><path class="cls-76" d="M39.42,6.08A3.19,3.19,0,0,1,40.3,4c.64-.58,1.4,0,1.92.48a5.2,5.2,0,0,1,1.11,1.4,4.05,4.05,0,0,1,.43.92,6.9,6.9,0,0,1,.05,1s0,0,.06,0c.53-.45,0-1.56-.21-2a5.78,5.78,0,0,0-1.61-1.93c-.56-.42-1.32-.76-1.92-.22a3.44,3.44,0,0,0-.79,2.44S39.41,6.12,39.42,6.08Z"/><path class="cls-77" d="M17.46,36.89a4.08,4.08,0,0,1,1.18-.59l.09,0-.08-.06c-.23-.19-.46-.4-.68-.61l-.41-.38a1.29,1.29,0,0,0-.17-.16,3.39,3.39,0,0,0-.46-.39.88.88,0,0,0-.95,0,8.49,8.49,0,0,0-4.58,4.74.9.9,0,0,0,0,1,3.54,3.54,0,0,0,.41.45L12,41l.4.4A7.84,7.84,0,0,1,13,42l.06.08,0-.1a6.79,6.79,0,0,1,1.5-2.59A12.46,12.46,0,0,1,17.46,36.89Z"/><path class="cls-78" d="M17.45,36.88c.49-.35,1-.62,1.12-.53a1.21,1.21,0,0,0-1-.07,3.08,3.08,0,0,0-.86.49,11.2,11.2,0,0,1-1.53,1.16c-.22.11-.21.11-.42-.06s-.22-.21-.32-.31-.58-.34-.71-.51a14.45,14.45,0,0,0,1.12,1.34l-.44.44a.24.24,0,0,1-.16.09.27.27,0,0,1-.16-.08l-1.14-1a4.06,4.06,0,0,0,1.07,1.33l-.68.68a5,5,0,0,1-.83-.69c-.19-.19-.38-.45-.29-.7a3.11,3.11,0,0,0-.63,1.14.41.41,0,0,0,0,.22.45.45,0,0,0,.13.23A15.73,15.73,0,0,0,13,41.24a.26.26,0,0,0,.18.09.2.2,0,0,0,.14-.08,14.22,14.22,0,0,0,1.34-1.82,11.72,11.72,0,0,1,1.52-1.55C16.3,37.75,16.89,37.27,17.45,36.88Z"/><path class="cls-79" d="M12.86,36.73a9.24,9.24,0,0,1,2.76-2.14l.05,0,0,0a2,2,0,0,0-2-1l-.35.08a1.37,1.37,0,0,1-.66.07,1.16,1.16,0,0,1-.64-.38,3.32,3.32,0,0,1-.44-.7,2.1,2.1,0,0,0-.13-.26,2.38,2.38,0,0,0-.94-1A1.91,1.91,0,0,0,8,31.84a2,2,0,0,0-.16,2.21,2.45,2.45,0,0,0,1,.89l.26.12a2.78,2.78,0,0,1,.73.42,1.17,1.17,0,0,1,.4.61,1.35,1.35,0,0,1,0,.66,2.29,2.29,0,0,0-.07.36,2,2,0,0,0,1.12,2h0l0-.09s0,0,0,0A18.39,18.39,0,0,1,12.86,36.73Z"/><path class="cls-80" d="M12.92,36.68c.29-.32.6-.59.88-.91a2.83,2.83,0,0,1-1.42.42,1.08,1.08,0,0,1-.9-.35c-.28-.4,0-1-.25-1.42-.29-.6-.92-.52-1.46-.46a1.88,1.88,0,0,1-1-.11,1.7,1.7,0,0,1-.51-.49,1.54,1.54,0,0,0,1,1.12c.2.07.42.1.62.16a1.67,1.67,0,0,1,.89,1.11c.16.51-.13,1-.13,1.54a1.45,1.45,0,0,0,.73,1.22.37.37,0,0,0,.2.07c.28,0,.49-.62.62-.82A9.34,9.34,0,0,1,12.92,36.68Z"/><path class="cls-3" d="M10.4,32.09a1.69,1.69,0,0,0-.31-.21.59.59,0,0,0-.33-.13.6.6,0,0,0-.23.06c-.15.07-.32.19-.3.36s.37.28.57.31a1.36,1.36,0,0,1,.77.39,2.48,2.48,0,0,0,.82.5,1.71,1.71,0,0,1-.52-.55,4.14,4.14,0,0,0-.29-.55A.77.77,0,0,0,10.4,32.09Z"/><path class="cls-3" d="M14,34c0-.11-.07-.22-.34-.25a1.59,1.59,0,0,0-1.1.52.49.49,0,0,0-.17.33.11.11,0,0,0,0,.08.15.15,0,0,0,.1,0,2.12,2.12,0,0,0,.41-.12l.73-.28A.5.5,0,0,0,14,34Z"/><path class="cls-3" d="M14.83,34.35c.06-.11,0-.24-.2-.25s-.38.24-.1.34A.23.23,0,0,0,14.83,34.35Z"/><path class="cls-81" d="M28,44.79c-.47-.6-1-1.2-1.51-1.8-1.08-1.21-2.18-2.34-3.29-3.37-.6-.56-1.23-1.12-1.85-1.64-.31-.27-.64-.54-1-.8l-.13-.1a3.13,3.13,0,0,0-.84-.55c-.8-.29-1.7.35-2.35.82l-.14.1a11.56,11.56,0,0,0-2,1.84,8.47,8.47,0,0,0-1.14,1.6.8.8,0,0,1-.08.16,2.07,2.07,0,0,0-.34,1.76,3.08,3.08,0,0,0,.58.81l.11.12c.27.32.55.63.84.94.54.59,1.12,1.19,1.71,1.77,1.08,1.07,2.26,2.12,3.51,3.15.62.51,1.24,1,1.85,1.43a1.92,1.92,0,0,0,1.14.45h.16a3.4,3.4,0,0,0,1.32-.53,9.38,9.38,0,0,0,1.9-1.53c.18-.19.36-.4.53-.6l.27-.3A8.7,8.7,0,0,0,28,47.4a3.35,3.35,0,0,0,.47-1.34A1.75,1.75,0,0,0,28,44.79Z"/><path class="cls-82" d="M27.48,44.72c-.43-.54-.9-1.1-1.4-1.66s-1.1-1.21-1.68-1.8a1.93,1.93,0,0,0-1.74-.82,47.41,47.41,0,0,0-6.92,1c-.62.14-2.18.58-1.79,1.49a2.88,2.88,0,0,0,.53.76l.1.11.78.87c.51.55,1,1.1,1.59,1.64,1,1,2.09,2,3.24,2.91.58.47,1.16.92,1.72,1.33a1.75,1.75,0,0,0,1.05.41h.15a3.14,3.14,0,0,0,1.22-.49A8.38,8.38,0,0,0,26.09,49c.17-.18.34-.37.5-.56l.25-.28a8.38,8.38,0,0,0,.66-1,3.12,3.12,0,0,0,.44-1.24A1.7,1.7,0,0,0,27.48,44.72Z"/><path class="cls-83" d="M23.79,41c-.19-.51-.58-.63-1.13-.56a47.41,47.41,0,0,0-6.92,1c-.28.07-2.3.65-1.56,1.19a.73.73,0,0,0,.48.09,29.2,29.2,0,0,0,7.7-1A4.13,4.13,0,0,0,23.79,41Z"/><path class="cls-84" d="M27.23,47.05l-1.07.81a1,1,0,0,1-.81.29,1.05,1.05,0,0,1-.46-.38,4.93,4.93,0,0,1-1-1.59c-.12-.38-.15-.78-.3-1.14a1,1,0,0,0-.89-.65.6.6,0,0,1-.23,0,.48.48,0,0,1-.22-.16,2,2,0,0,0-1.55-.66,1.38,1.38,0,0,0-1.25,1c0-.19-.83-.62-1-.72a14.24,14.24,0,0,1-1.26-1.07,23.62,23.62,0,0,1-2.18-2.35A5.21,5.21,0,0,0,14,41.79a.19.19,0,0,0,0,.28c.23.33.48.65.73,1a40.6,40.6,0,0,0,6,5.91,12.3,12.3,0,0,0,2.1,1.42,2.46,2.46,0,0,0,1.2.33c.74,0,1.29-.83,1.73-1.35A6.64,6.64,0,0,0,27.23,47.05Z"/><path class="cls-4" d="M28.82,45.5a5.55,5.55,0,0,0-1.41-2c-1.21-1.37-2.48-2.69-3.82-3.94-.62-.58-1.26-1.15-1.9-1.69a10.22,10.22,0,0,0-2-1.56,1.31,1.31,0,0,0-.71-.14.19.19,0,0,0,0-.16,9.08,9.08,0,0,0-1.43-1.34c-.42-.35-.71-.63-1.26-.44l-.3.13a2.39,2.39,0,0,0-1.67-1.17,2.52,2.52,0,0,0-1.09.09c-.78.22-1.22-.25-1.54-.87A2.55,2.55,0,0,0,9.86,31a2.1,2.1,0,0,0-2.46,1.5,2.53,2.53,0,0,0,1.52,2.79c.64.3,1.18.61,1,1.41a2.51,2.51,0,0,0,0,1.09,2.41,2.41,0,0,0,1.23,1.62c0,.1-.07.2-.1.31-.18.55.12.83.49,1.23a9.54,9.54,0,0,0,1.39,1.38.23.23,0,0,0,.16,0,1.57,1.57,0,0,0,.17.71,10.6,10.6,0,0,0,1.64,2c.58.63,1.17,1.24,1.78,1.83a52.62,52.62,0,0,0,4.1,3.65,5.56,5.56,0,0,0,2,1.33A3.11,3.11,0,0,0,25,51.17a5.5,5.5,0,0,0,.5-.34,6.73,6.73,0,0,0,1.37-1.18,9.62,9.62,0,0,0,1.45-1.91A3.11,3.11,0,0,0,28.82,45.5ZM10.15,37.12a3.32,3.32,0,0,0,.11-1,1.24,1.24,0,0,0-.42-.64,4.2,4.2,0,0,0-1-.54,2.34,2.34,0,0,1-1-.88A1.94,1.94,0,0,1,8,31.87a1.89,1.89,0,0,1,2.42-.5,2.4,2.4,0,0,1,.92.95,4.6,4.6,0,0,0,.58,1,1.25,1.25,0,0,0,.66.39,3,3,0,0,0,1-.15,2,2,0,0,1,2,1,9.39,9.39,0,0,0-2.77,2.16,15.77,15.77,0,0,0-1.59,2.36A2,2,0,0,1,10.15,37.12ZM13.08,42c-.32-.37-.7-.7-1-1a5.39,5.39,0,0,1-.57-.6.88.88,0,0,1,0-.91A8.53,8.53,0,0,1,16,34.73a.88.88,0,0,1,.91,0,5.43,5.43,0,0,1,.63.54c.37.32.71.69,1.1,1a4.22,4.22,0,0,0-1.2.6,12.33,12.33,0,0,0-2.84,2.55A6.75,6.75,0,0,0,13.08,42ZM28,47.38a8.66,8.66,0,0,1-.72,1.1c-.26.3-.52.61-.8.9a9.27,9.27,0,0,1-1.89,1.52,3.38,3.38,0,0,1-1.29.52A1.7,1.7,0,0,1,22,51c-.63-.45-1.25-.93-1.85-1.43q-1.83-1.48-3.5-3.14c-.59-.58-1.16-1.17-1.72-1.77l-.84-.94a3.85,3.85,0,0,1-.68-.92c-.27-.65.14-1.31.43-1.87A7.84,7.84,0,0,1,15,39.32a11.09,11.09,0,0,1,2-1.83c.64-.46,1.61-1.22,2.45-.91a3.78,3.78,0,0,1,.95.64l1,.8c.63.53,1.25,1.07,1.85,1.64,1.15,1.06,2.24,2.19,3.28,3.36.52.58,1,1.18,1.52,1.79a1.81,1.81,0,0,1,.48,1.25A3.66,3.66,0,0,1,28,47.38Z"/><path class="cls-85" d="M24.48,47.84a4.68,4.68,0,0,0-.1-.54l-.16-.7a2.6,2.6,0,0,0-.36-1,1.34,1.34,0,0,0-.92-.56,1.7,1.7,0,0,0-1.38-.93,4.05,4.05,0,0,0-1.72.23,1.36,1.36,0,0,0-.87-1,1.13,1.13,0,0,0-1.23.32c-.33.39-.33,1-.58,1.41a1.66,1.66,0,0,1-.68.66,4.58,4.58,0,0,1-.42.35s-.07,0-.1,0c-.5-.53-1-1.06-1.49-1.6a10,10,0,0,0-.26,1.08,7.7,7.7,0,0,0-.11,1.44,5.72,5.72,0,0,0,1.41,3.72,4.63,4.63,0,0,0,3.61,1.56,6.83,6.83,0,0,0,2-.49,5.72,5.72,0,0,0,2.44-1.51,4.18,4.18,0,0,0,.6-.94A3.06,3.06,0,0,0,24.48,47.84Z"/><path class="cls-43" d="M24.48,47.84a4.68,4.68,0,0,0-.1-.54l-.16-.7a2.6,2.6,0,0,0-.36-1,1.34,1.34,0,0,0-.92-.56,1.7,1.7,0,0,0-1.38-.93,4.05,4.05,0,0,0-1.72.23,1.36,1.36,0,0,0-.87-1,1.13,1.13,0,0,0-1.23.32c-.33.39-.33,1-.58,1.41s-.44.4-.54.73a5.66,5.66,0,0,0,.24,4.28,3.48,3.48,0,0,0,4.25,1.71,5.72,5.72,0,0,0,2.44-1.51,4.18,4.18,0,0,0,.6-.94A3.06,3.06,0,0,0,24.48,47.84Z"/><path class="cls-4" d="M24.7,47.39c-.05-.14-.33-.44-.33-.55a2.34,2.34,0,0,0-.12-.64,1.76,1.76,0,0,0-1.34-1.29A1.43,1.43,0,0,0,21.64,44a3,3,0,0,0-.94,0c-.12,0-.81.14-.84.27a.85.85,0,0,0-.32-.72,1.19,1.19,0,0,0-1.18-.28,1.47,1.47,0,0,0-1,.72c-.11.27-.08.58-.2.85a1.65,1.65,0,0,1-.34.64,5.37,5.37,0,0,1-.51.44,2.53,2.53,0,0,0-.66.89,3.78,3.78,0,0,0,.5-.48c.17-.15.37-.25.55-.38a2.42,2.42,0,0,0,1-1.57,1.11,1.11,0,0,1,1-.81.68.68,0,0,1,.65.38,3.24,3.24,0,0,1,.2.36c.05.11.06.06,0,.15s-.16.2-.22.28a1.8,1.8,0,0,1,.65-.18c.25-.05.5-.12.76-.16a2.25,2.25,0,0,1,1.51.2c.64.34.4.87,0,1.34a2.3,2.3,0,0,0-.45.77c0-.07.32-.2.39-.26a2.24,2.24,0,0,0,.35-.34c.15-.17.26-.69.54-.74s.61.35.74.65a1.37,1.37,0,0,1-.15,1.49l-.25.3c-.1.12-.17.26-.27.38s0,0,0,0a1.6,1.6,0,0,0,.74-.46,3.7,3.7,0,0,0,.32-.43A3.59,3.59,0,0,1,23,50.54c-2.46,2.24-7,2.08-8.32-1.36a6.67,6.67,0,0,1-.33-2.84,9.11,9.11,0,0,1,.22-1.48.91.91,0,0,0,.06-.16,1.83,1.83,0,0,0-.36-.32A7.39,7.39,0,0,0,14.19,49,5,5,0,0,0,18,52.5a4.68,4.68,0,0,0,1.24.06,6.8,6.8,0,0,0,4.12-1.74,4.39,4.39,0,0,0,1.21-1.74,3.56,3.56,0,0,0,.21-1A1.89,1.89,0,0,0,24.7,47.39Z"/><path class="cls-86" d="M24.48,47.84a4.68,4.68,0,0,0-.1-.54l-.16-.7a2.6,2.6,0,0,0-.36-1,1.34,1.34,0,0,0-.92-.56,1.7,1.7,0,0,0-1.38-.93,4.05,4.05,0,0,0-1.72.23c.24-.07-.75-.81-.78-.83a1.44,1.44,0,0,1-.2,1.5,5.56,5.56,0,0,1,1.81-.71,2,2,0,0,1,.91,0,.94.94,0,0,1,.67.57A1.47,1.47,0,0,1,22,46l-.53,1,1.09-.92c.23-.2.52-.41.81-.31a.72.72,0,0,1,.39.71,2.56,2.56,0,0,1-1,1.71.37.37,0,0,1,.35.37c.09.84-1.12,1.28-1.74,1.51a5.78,5.78,0,0,1-2.54.34,3.48,3.48,0,0,1-1.14-.29,2.79,2.79,0,0,1-1.05-.94A3.23,3.23,0,0,1,16.51,46a1,1,0,0,0-.45.21s-.07,0-.1,0c-.5-.53-1-1.06-1.49-1.6a10,10,0,0,0-.26,1.08,7.7,7.7,0,0,0-.11,1.44,5.72,5.72,0,0,0,1.41,3.72,4.63,4.63,0,0,0,3.61,1.56,6.83,6.83,0,0,0,2-.49,5.72,5.72,0,0,0,2.44-1.51,4.18,4.18,0,0,0,.6-.94A3.06,3.06,0,0,0,24.48,47.84Z"/></g></g></svg>